<?xml version="1.0" encoding="UTF-8"?>
<svg id="Layer_1" data-name="Layer 1" xmlns="http://www.w3.org/2000/svg" version="1.1" xmlns:cc="http://creativecommons.org/ns#" xmlns:dc="http://purl.org/dc/elements/1.1/" xmlns:inkscape="http://www.inkscape.org/namespaces/inkscape" xmlns:rdf="http://www.w3.org/1999/02/22-rdf-syntax-ns#" xmlns:sodipodi="http://sodipodi.sourceforge.net/DTD/sodipodi-0.dtd" xmlns:svg="http://www.w3.org/2000/svg" viewBox="0 0 100 100">
  <defs>
    <style>
      .cls-1 {
        fill: #000;
        stroke-width: 0px;
      }
    </style>
  </defs>
  <path class="cls-1" d="M22.8,3.7c-.9,0-1.5.7-1.5,1.6h0v5.6h-8.4c-3.9,0-7.1,3.2-7.1,7.1v52.4c0,3.9,3.2,7.1,7.1,7.1h12.1c4.2,9.5,13.8,16.2,24.9,16.2s20.7-6.7,24.9-16.2h12.1c3.9,0,7.1-3.2,7.1-7.1V18c0-3.9-3.2-7.1-7.1-7.1h-8.3v-5.6c0-.9-.7-1.6-1.5-1.6,0,0,0,0,0,0-.9,0-1.5.7-1.5,1.6h0v5.6h-24.1v-5.6c0-.9-.7-1.6-1.5-1.6h0c-.9,0-1.6.7-1.6,1.5,0,0,0,0,0,0v5.6h-24.1v-5.6c0-.9-.7-1.6-1.5-1.6,0,0,0,0,0,0ZM12.9,14h8.4v5.6c0,.9.7,1.6,1.5,1.6,0,0,0,0,0,0,.9,0,1.6-.7,1.6-1.5,0,0,0,0,0,0v-5.6h24.1v5.6c0,.9.7,1.6,1.5,1.6,0,0,0,0,0,0,.9,0,1.5-.7,1.5-1.6,0,0,0,0,0,0v-5.6h24.1v5.6c0,.9.7,1.6,1.5,1.6,0,0,0,0,0,0,.9,0,1.6-.7,1.6-1.5,0,0,0,0,0,0v-5.6h8.3c2.2,0,4,1.8,4,4v9.3H9v-9.3c0-2.2,1.7-4,4-4ZM9,30.4h82.1v40c0,2.2-1.7,4-4,4h-11c.8-2.5,1.2-5.2,1.2-8,0-15.1-12.2-27.3-27.3-27.3s-27.3,12.2-27.3,27.3.4,5.4,1.2,8h-11c-2.2,0-4-1.7-4-4V30.4ZM50,42.3c13.4,0,24.2,10.8,24.2,24.2s-.6,6.1-1.7,8.9c0,0,0,.1,0,.2-3.6,8.9-12.3,15.1-22.4,15.1s-18.8-6.2-22.4-15c0-.1,0-.3-.2-.4-1.1-2.7-1.6-5.7-1.6-8.7,0-13.4,10.8-24.2,24.2-24.2ZM62.1,57c-.4,0-.8.2-1.1.4l-14.5,14.6-7.6-7.6c-.6-.6-1.6-.6-2.2,0-.6.6-.6,1.6,0,2.2,0,0,0,0,0,0l8.7,8.7c.6.6,1.6.6,2.2,0,0,0,0,0,0,0l15.6-15.7c.6-.6.6-1.6,0-2.2-.3-.3-.7-.4-1.1-.4h0Z"/>
</svg>