<svg width="35" height="26" viewBox="0 0 35 26" fill="none" xmlns="http://www.w3.org/2000/svg">
<path d="M30.5185 7.89583C32.0815 7.52327 33.4728 8.67195 33.3258 10.2961L33.3257 10.2971C33.2338 11.2039 32.7009 11.8161 31.8644 12.1389C28.2574 13.5262 24.6343 14.9103 21.0187 16.2623L21.0177 16.2622C20.8733 16.314 20.7831 16.3727 20.7203 16.4471C20.6571 16.5219 20.6127 16.6218 20.5771 16.7715C20.4133 17.536 20.2181 18.2962 20.0394 19.0529C19.9338 19.5004 19.9843 19.8764 20.1628 20.1664C20.3414 20.4566 20.6574 20.6748 21.1101 20.7897L21.1091 20.7897C21.4005 20.8585 21.6917 20.9277 21.9831 20.9965C22.2747 21.0653 22.5666 21.1335 22.8581 21.2023L22.86 21.2035C23.9939 21.4887 24.6234 22.4813 24.3636 23.582C24.1033 24.6848 23.0822 25.2698 21.9452 25.0014C21.3679 24.8651 20.7903 24.7292 20.2251 24.5957L20.2342 24.6317L20.0774 24.5938C19.3854 24.4304 18.6673 24.3251 17.9704 24.1089L17.6722 24.0088C15.8959 23.3493 14.9039 21.5349 15.3251 19.6779L15.6471 18.2592C15.7546 17.7863 15.8664 17.3132 15.9945 16.8412C16.0514 16.6346 16.0386 16.5392 16.0002 16.4813C15.9573 16.4172 15.8631 16.3656 15.6666 16.3023L15.6667 16.3013C14.2253 15.844 12.8072 15.3597 11.3778 14.8552C11.2412 14.8073 11.1575 14.806 11.0958 14.8287C11.0333 14.8518 10.9713 14.9071 10.8965 15.0237L10.8943 15.0274C9.71238 16.7198 8.53053 18.4129 7.3326 20.1018L7.33169 20.1008C6.65111 21.0719 5.44993 21.3676 4.44259 20.8327L4.44251 20.8337C3.44637 20.3181 3.01019 19.1462 3.38628 18.0678L3.3874 18.0659C3.48343 17.8076 3.62125 17.596 3.77037 17.3938C4.71919 16.0892 5.67116 14.7891 6.62285 13.4896C7.57465 12.19 8.5266 10.8907 9.47526 9.5864L9.47533 9.58543C10.4857 8.20826 12.1533 7.76071 13.7894 8.42096C15.4617 9.09998 17.1113 9.7899 18.7856 10.4524L18.9552 10.5157C19.8054 10.8103 20.6769 10.7869 21.5673 10.5204L30.3667 7.93664L30.5185 7.89583ZM19.9162 16.7174C19.8812 16.7211 19.8328 16.7332 19.7667 16.7544L19.7646 16.7553C18.7996 17.0378 17.8475 17.0352 16.9038 16.7108C16.8439 16.6927 16.7995 16.6828 16.766 16.6802C16.734 16.6778 16.7184 16.6831 16.7097 16.6878C16.6906 16.6981 16.6583 16.7332 16.6244 16.8765C16.4047 17.8777 16.149 18.8891 15.9143 19.8835C15.5856 21.2759 16.3108 22.709 17.605 23.3058L17.6041 23.3057C17.9936 23.4791 18.4053 23.5847 18.809 23.6737C19.2079 23.7618 19.6058 23.8345 19.9517 23.9413L19.9642 23.9442C20.7526 24.1303 21.3992 24.283 22.0299 24.4318C22.4752 24.5369 22.8686 24.4866 23.1692 24.3172C23.4687 24.1485 23.6856 23.8567 23.7712 23.4614L23.7714 23.4594C23.8626 23.0729 23.7984 22.7179 23.6093 22.4332C23.4199 22.148 23.0995 21.9239 22.6647 21.8129L22.6646 21.8139C22.6635 21.8136 22.662 21.8129 22.6608 21.8126L22.6579 21.8124C22.6568 21.8121 22.6552 21.8114 22.6541 21.8112C22.6531 21.8109 22.6522 21.8102 22.6512 21.81C22.6501 21.8097 22.6484 21.81 22.6473 21.8097C22.6462 21.8094 22.6446 21.8087 22.6435 21.8084L22.6406 21.8082C22.6394 21.8079 22.6379 21.8072 22.6367 21.807L22.6338 21.8067C22.6327 21.8065 22.6311 21.8058 22.63 21.8055C22.629 21.8053 22.6281 21.8045 22.6272 21.8043C22.626 21.804 22.6244 21.8043 22.6233 21.804C22.6223 21.8038 22.6214 21.8031 22.6204 21.8028C22.6193 21.8026 22.6176 21.8028 22.6165 21.8025C22.6154 21.8023 22.6138 21.8016 22.6127 21.8013L22.6098 21.8011C22.6086 21.8008 22.6071 21.8001 22.6059 21.7998C22.6049 21.7996 22.6041 21.7989 22.6031 21.7986C22.6019 21.7984 22.6003 21.7986 22.5992 21.7983C22.5982 21.7981 22.5973 21.7974 22.5963 21.7972C22.5952 21.7969 22.5936 21.7971 22.5924 21.7969C22.5915 21.7966 22.5906 21.7959 22.5896 21.7957C22.5885 21.7954 22.5868 21.7957 22.5857 21.7954C22.5846 21.7951 22.583 21.7944 22.5819 21.7941C22.5809 21.7939 22.58 21.7932 22.579 21.7929C22.5779 21.7927 22.5763 21.7929 22.5751 21.7927C22.5741 21.7924 22.5733 21.7917 22.5723 21.7915C22.5711 21.7912 22.5695 21.7915 22.5684 21.7912C22.5674 21.791 22.5665 21.7902 22.5655 21.79C22.5644 21.7897 22.5628 21.79 22.5616 21.7897C22.5606 21.7895 22.5598 21.7888 22.5588 21.7885C22.5576 21.7883 22.5561 21.7875 22.555 21.7873L22.552 21.7871C22.5509 21.7868 22.5493 21.7861 22.5482 21.7858C22.5471 21.7855 22.5454 21.7858 22.5443 21.7855C22.5433 21.7853 22.5425 21.7846 22.5415 21.7843C22.5403 21.7841 22.5387 21.7843 22.5376 21.784C22.5366 21.7838 22.5357 21.7831 22.5347 21.7829C22.5336 21.7826 22.532 21.7828 22.5308 21.7826C22.5298 21.7823 22.529 21.7816 22.528 21.7814C22.5268 21.7811 22.5253 21.7804 22.5241 21.7801L22.5212 21.7799C22.5201 21.7796 22.5185 21.7789 22.5174 21.7787C22.5163 21.7784 22.5146 21.7786 22.5135 21.7784C22.5125 21.7781 22.5116 21.7774 22.5107 21.7772C22.5095 21.7769 22.5079 21.7772 22.5068 21.7769C22.5058 21.7767 22.5049 21.7759 22.5039 21.7757C22.5028 21.7754 22.5012 21.7747 22.5001 21.7745L22.4972 21.7742C22.496 21.774 22.4945 21.7733 22.4933 21.773L22.4904 21.7728C22.4893 21.7725 22.4877 21.7718 22.4866 21.7715C22.4855 21.7712 22.4838 21.7715 22.4827 21.7712C22.4817 21.771 22.4808 21.7703 22.4798 21.77C22.4787 21.7698 22.4772 21.7691 22.476 21.7688L22.4731 21.7686C22.472 21.7683 22.4704 21.7676 22.4693 21.7673L22.4663 21.7671C22.4652 21.7668 22.4637 21.7661 22.4625 21.7658L22.4596 21.7656C22.4585 21.7654 22.4569 21.7646 22.4558 21.7644C22.4548 21.7641 22.4539 21.7634 22.4529 21.7632C22.4518 21.7629 22.4502 21.7632 22.449 21.7629C22.4479 21.7626 22.4463 21.7619 22.4452 21.7616L22.4423 21.7614C22.4411 21.7612 22.4396 21.7604 22.4385 21.7602L22.4355 21.76C22.4344 21.7597 22.4329 21.759 22.4317 21.7587C22.4307 21.7585 22.4298 21.7577 22.4289 21.7575C22.4277 21.7572 22.4261 21.7575 22.425 21.7572C22.424 21.757 22.4231 21.7563 22.4221 21.756C22.421 21.7558 22.4193 21.756 22.4182 21.7557C22.4171 21.7555 22.4155 21.7548 22.4144 21.7545L22.4115 21.7543C22.4103 21.754 22.4088 21.7533 22.4076 21.753C22.4067 21.7528 22.4058 21.7521 22.4048 21.7518C22.4037 21.7516 22.402 21.7518 22.4009 21.7515C22.3999 21.7513 22.399 21.7506 22.398 21.7504C22.3969 21.7501 22.3953 21.7503 22.3942 21.7501C22.3932 21.7498 22.3923 21.7491 22.3913 21.7489C22.3902 21.7486 22.3885 21.7489 22.3874 21.7486C22.3864 21.7484 22.3855 21.7476 22.3846 21.7474C22.3834 21.7471 22.3819 21.7464 22.3807 21.7462C22.3796 21.7459 22.378 21.7461 22.3768 21.7459C22.3758 21.7456 22.375 21.7449 22.374 21.7447C22.3728 21.7444 22.3712 21.7447 22.3701 21.7444C22.3691 21.7442 22.3682 21.7434 22.3672 21.7432C22.3661 21.7429 22.3645 21.7432 22.3633 21.7429C22.3624 21.7427 22.3615 21.742 22.3605 21.7417C22.3594 21.7415 22.3578 21.7408 22.3567 21.7405L22.3537 21.7403C22.3526 21.74 22.3511 21.7393 22.3499 21.739C22.3488 21.7387 22.3471 21.739 22.346 21.7387C22.345 21.7385 22.3442 21.7378 22.3432 21.7375C22.342 21.7373 22.3404 21.7375 22.3393 21.7373C22.3383 21.737 22.3374 21.7363 22.3364 21.7361C22.3353 21.7358 22.3337 21.7351 22.3326 21.7348L22.3297 21.7346C22.3285 21.7343 22.327 21.7336 22.3259 21.7333L22.3229 21.7331C22.3218 21.7329 22.3202 21.7321 22.3191 21.7319C22.318 21.7316 22.3163 21.7318 22.3152 21.7316C22.3142 21.7313 22.3133 21.7306 22.3124 21.7304C22.3112 21.7301 22.3096 21.7304 22.3085 21.7301C22.3075 21.7299 22.3066 21.7292 22.3056 21.7289C22.3045 21.7287 22.3029 21.7279 22.3018 21.7277L22.2989 21.7274C22.2977 21.7272 22.2962 21.7265 22.295 21.7262L22.2921 21.726C22.291 21.7257 22.2894 21.725 22.2883 21.7247L22.2854 21.7245L22.2777 21.722L22.2748 21.7218C22.2737 21.7215 22.2721 21.7208 22.271 21.7205L22.2681 21.7203C22.2669 21.72 22.2654 21.7193 22.2642 21.719L22.2613 21.7188C22.2602 21.7186 22.2586 21.7178 22.2575 21.7176C22.2565 21.7173 22.2556 21.7166 22.2546 21.7164C22.2535 21.7161 22.2519 21.7164 22.2507 21.7161C22.2496 21.7158 22.2481 21.7151 22.2469 21.7148L22.244 21.7146C22.2429 21.7144 22.2413 21.7136 22.2402 21.7134L22.2372 21.7132C22.2361 21.7129 22.2346 21.7122 22.2334 21.7119C22.2324 21.7117 22.2316 21.7109 22.2306 21.7107C22.2294 21.7104 22.2278 21.7107 22.2267 21.7104C22.2257 21.7102 22.2248 21.7095 22.2238 21.7092C22.2227 21.709 22.2211 21.7092 22.2199 21.709C22.2188 21.7087 22.2172 21.708 22.2161 21.7077L22.2132 21.7075C22.212 21.7072 22.2105 21.7065 22.2094 21.7062C22.2084 21.706 22.2075 21.7053 22.2065 21.705C22.2054 21.7048 22.2037 21.705 22.2026 21.7048C22.2016 21.7045 22.2007 21.7038 22.1998 21.7036C22.1986 21.7033 22.197 21.7036 22.1959 21.7033C22.1949 21.703 22.194 21.7023 22.193 21.7021C22.1919 21.7018 22.1903 21.7021 22.1891 21.7018C22.1881 21.7016 22.1873 21.7009 22.1863 21.7006C22.1851 21.7004 22.1836 21.6996 22.1824 21.6994C22.1813 21.6991 22.1797 21.6993 22.1785 21.6991C22.1776 21.6988 22.1767 21.6981 22.1757 21.6979C22.1746 21.6976 22.1729 21.6979 22.1718 21.6976C22.1708 21.6974 22.1699 21.6967 22.1689 21.6964C22.1678 21.6962 22.1662 21.6964 22.1651 21.6961C22.1641 21.6959 22.1632 21.6952 22.1622 21.6949C22.1611 21.6947 22.1595 21.694 22.1584 21.6937L22.1555 21.6935C22.1543 21.6932 22.1528 21.6925 22.1516 21.6922C22.1505 21.692 22.1489 21.6922 22.1477 21.6919C22.1467 21.6917 22.1459 21.691 22.1449 21.6907C22.1437 21.6905 22.1421 21.6907 22.141 21.6905C22.14 21.6902 22.1391 21.6895 22.1381 21.6893C22.137 21.689 22.1355 21.6883 22.1343 21.688L22.1314 21.6878C22.1302 21.6875 22.1287 21.6868 22.1276 21.6865L22.1246 21.6863C22.1235 21.6861 22.122 21.6853 22.1208 21.6851C22.1197 21.6848 22.118 21.6851 22.1169 21.6848C22.1159 21.6846 22.1151 21.6838 22.1141 21.6836C22.1129 21.6833 22.1114 21.6826 22.1102 21.6823L22.1073 21.6821C22.1062 21.6819 22.1046 21.6811 22.1035 21.6809L22.1006 21.6807C22.0994 21.6804 22.0979 21.6797 22.0968 21.6794L22.0938 21.6792C22.0927 21.6789 22.0911 21.6782 22.09 21.6779L22.0871 21.6777L22.0794 21.6752L22.0765 21.675C22.0754 21.6747 22.0738 21.674 22.0727 21.6737L22.0698 21.6735C22.0686 21.6732 22.0671 21.6725 22.0659 21.6723L22.063 21.672C22.0619 21.6718 22.0603 21.671 22.0592 21.6708C22.0582 21.6705 22.0573 21.6698 22.0563 21.6696C22.0552 21.6693 22.0536 21.6696 22.0524 21.6693C22.0513 21.669 22.0498 21.6683 22.0486 21.668L22.0457 21.6678C22.0446 21.6676 22.043 21.6668 22.0419 21.6666L22.039 21.6664C22.0378 21.6661 22.0363 21.6654 22.0351 21.6651C22.0341 21.6649 22.0333 21.6642 22.0323 21.6639C22.0311 21.6636 22.0295 21.6639 22.0284 21.6636C22.0274 21.6634 22.0265 21.6627 22.0255 21.6624C22.0244 21.6622 22.0228 21.6624 22.0216 21.6622C22.0205 21.6619 22.019 21.6612 22.0178 21.6609L22.0149 21.6607C22.0138 21.6604 22.0122 21.6597 22.0111 21.6594C22.0101 21.6592 22.0092 21.6585 22.0082 21.6582C22.0071 21.658 22.0055 21.6582 22.0043 21.658C22.0033 21.6577 22.0025 21.657 22.0015 21.6568C22.0003 21.6565 21.9987 21.6568 21.9976 21.6565C21.9966 21.6563 21.9957 21.6555 21.9947 21.6553C21.9936 21.655 21.992 21.6553 21.9908 21.655C21.9898 21.6548 21.989 21.6541 21.988 21.6538C21.9868 21.6536 21.9853 21.6528 21.9841 21.6526C21.983 21.6523 21.9814 21.6526 21.9803 21.6523C21.9793 21.6521 21.9784 21.6513 21.9774 21.6511C21.9763 21.6508 21.9746 21.6511 21.9735 21.6508C21.9725 21.6506 21.9716 21.6499 21.9707 21.6496C21.9695 21.6494 21.9679 21.6496 21.9668 21.6493C21.9658 21.6491 21.9649 21.6484 21.9639 21.6482C21.9628 21.6479 21.9612 21.6472 21.9601 21.6469L21.9572 21.6467C21.956 21.6464 21.9545 21.6457 21.9533 21.6454C21.9522 21.6452 21.9506 21.6454 21.9494 21.6451C21.9485 21.6449 21.9476 21.6442 21.9466 21.644C21.9455 21.6437 21.9438 21.6439 21.9427 21.6437C21.9417 21.6434 21.9408 21.6427 21.9398 21.6425C21.9387 21.6422 21.9372 21.6415 21.936 21.6412L21.9331 21.641C21.932 21.6407 21.9304 21.64 21.9293 21.6398L21.9264 21.6395C21.9252 21.6393 21.9237 21.6385 21.9225 21.6383L21.9196 21.6381L21.912 21.6355L21.909 21.6353C21.9079 21.6351 21.9063 21.6343 21.9052 21.6341L21.9023 21.6339C21.9011 21.6336 21.8996 21.6329 21.8985 21.6326L21.8955 21.6324C21.8944 21.6321 21.8929 21.6314 21.8917 21.6311C21.8907 21.6309 21.8899 21.6302 21.8889 21.6299C21.8877 21.6297 21.8861 21.6299 21.885 21.6297C21.8838 21.6294 21.8823 21.6287 21.8811 21.6284L21.8782 21.6282C21.8771 21.6279 21.8755 21.6272 21.8744 21.6269L21.8715 21.6267C21.8703 21.6264 21.8688 21.6257 21.8677 21.6255L21.8647 21.6252C21.8636 21.625 21.862 21.6243 21.8609 21.624C21.8599 21.6238 21.859 21.623 21.8581 21.6228C21.8569 21.6225 21.8553 21.6228 21.8542 21.6225C21.853 21.6222 21.8515 21.6215 21.8503 21.6213L21.8474 21.621C21.8463 21.6208 21.8447 21.6201 21.8436 21.6198L21.8407 21.6196C21.8395 21.6193 21.838 21.6186 21.8368 21.6183C21.8359 21.6181 21.835 21.6174 21.834 21.6171C21.8328 21.6169 21.8312 21.6171 21.8301 21.6168C21.8291 21.6166 21.8282 21.6159 21.8272 21.6157C21.8261 21.6154 21.8245 21.6156 21.8233 21.6154C21.8224 21.6151 21.8215 21.6144 21.8205 21.6142C21.8194 21.6139 21.8177 21.6142 21.8166 21.6139C21.8155 21.6136 21.8139 21.6129 21.8128 21.6126C21.8118 21.6124 21.8109 21.6117 21.8099 21.6115C21.8088 21.6112 21.8072 21.6114 21.806 21.6112C21.805 21.6109 21.8042 21.6102 21.8032 21.61C21.802 21.6097 21.8004 21.61 21.7993 21.6097C21.7983 21.6095 21.7974 21.6087 21.7964 21.6085C21.7953 21.6082 21.7937 21.6085 21.7925 21.6082C21.7915 21.608 21.7907 21.6073 21.7897 21.607C21.7885 21.6068 21.787 21.606 21.7859 21.6058C21.7847 21.6055 21.7831 21.6058 21.782 21.6055C21.781 21.6053 21.7801 21.6045 21.7791 21.6043C21.778 21.604 21.7764 21.6043 21.7752 21.604C21.7742 21.6038 21.7734 21.6031 21.7724 21.6028C21.7712 21.6026 21.7696 21.6028 21.7685 21.6025C21.7675 21.6023 21.7666 21.6016 21.7656 21.6014C21.7645 21.6011 21.7629 21.6004 21.7618 21.6001L21.7589 21.5999C21.7577 21.5996 21.7562 21.5989 21.755 21.5986C21.7539 21.5984 21.7523 21.5986 21.7512 21.5983C21.7502 21.5981 21.7493 21.5974 21.7483 21.5972C21.7472 21.5969 21.7455 21.5971 21.7444 21.5969C21.7434 21.5966 21.7425 21.5959 21.7416 21.5957C21.7404 21.5954 21.7389 21.5947 21.7377 21.5944L21.7348 21.5942C21.7337 21.5939 21.7321 21.5932 21.731 21.593L21.7281 21.5927C21.7269 21.5925 21.7254 21.5918 21.7242 21.5915L21.7213 21.5913L21.7137 21.5888L21.7107 21.5885C21.7096 21.5883 21.7081 21.5876 21.7069 21.5873L21.704 21.5871C21.7029 21.5868 21.7013 21.5861 21.7002 21.5858L21.6973 21.5856C21.6961 21.5853 21.6946 21.5846 21.6934 21.5843C21.6924 21.5841 21.6916 21.5834 21.6906 21.5832C21.6894 21.5829 21.6878 21.5831 21.6867 21.5829C21.6855 21.5826 21.684 21.5819 21.6829 21.5816L21.6799 21.5814C21.6788 21.5811 21.6772 21.5804 21.6761 21.5801L21.6732 21.5799C21.672 21.5797 21.6705 21.5789 21.6694 21.5787C21.6684 21.5784 21.6675 21.5777 21.6665 21.5775C21.6654 21.5772 21.6638 21.5775 21.6626 21.5772C21.6616 21.577 21.6608 21.5762 21.6598 21.576C21.6586 21.5757 21.657 21.576 21.6559 21.5757C21.6547 21.5755 21.6532 21.5747 21.652 21.5745L21.6491 21.5742C21.648 21.574 21.6464 21.5733 21.6453 21.573L21.6424 21.5728C21.6412 21.5725 21.6397 21.5718 21.6385 21.5715C21.6376 21.5713 21.6367 21.5706 21.6357 21.5703C21.6346 21.5701 21.6329 21.5703 21.6318 21.57C21.6308 21.5698 21.6299 21.5691 21.629 21.5689C21.6278 21.5686 21.6262 21.5688 21.6251 21.5686C21.6241 21.5683 21.6232 21.5676 21.6222 21.5674C21.6211 21.5671 21.6194 21.5674 21.6183 21.5671C21.6172 21.5668 21.6156 21.5661 21.6145 21.5658C21.6135 21.5656 21.6126 21.5649 21.6116 21.5647C21.6105 21.5644 21.6089 21.5646 21.6077 21.5644C21.6067 21.5641 21.6059 21.5634 21.6049 21.5632C21.6037 21.5629 21.6021 21.5632 21.601 21.5629C21.6 21.5627 21.5991 21.5619 21.5981 21.5617C21.597 21.5614 21.5954 21.5617 21.5942 21.5614C21.5933 21.5612 21.5924 21.5605 21.5914 21.5602C21.5903 21.56 21.5887 21.5593 21.5876 21.559C21.5865 21.5587 21.5848 21.559 21.5837 21.5587C21.5827 21.5585 21.5818 21.5577 21.5808 21.5575C21.5797 21.5572 21.5781 21.5575 21.5769 21.5572C21.5759 21.557 21.5751 21.5563 21.5741 21.556C21.5729 21.5558 21.5713 21.556 21.5702 21.5558C21.5692 21.5555 21.5683 21.5548 21.5673 21.5546C21.5662 21.5543 21.5646 21.5536 21.5635 21.5533L21.5606 21.5531C21.5594 21.5528 21.5579 21.5521 21.5568 21.5518C21.5556 21.5516 21.554 21.5518 21.5529 21.5516C21.5519 21.5513 21.551 21.5506 21.55 21.5504C21.5489 21.5501 21.5473 21.5504 21.5461 21.5501C21.5451 21.5498 21.5443 21.5491 21.5433 21.5489C21.5421 21.5486 21.5406 21.5479 21.5394 21.5476L21.5365 21.5474C21.5354 21.5472 21.5338 21.5464 21.5327 21.5462L21.5298 21.546C21.5286 21.5457 21.5271 21.545 21.5259 21.5447L21.523 21.5445L21.5154 21.542L21.5125 21.5417C21.5113 21.5415 21.5098 21.5408 21.5086 21.5405L21.5057 21.5403C21.5046 21.54 21.503 21.5393 21.5019 21.539L21.499 21.5388C21.4978 21.5385 21.4963 21.5378 21.4951 21.5375C21.4941 21.5373 21.4933 21.5366 21.4923 21.5364C21.4911 21.5361 21.4895 21.5363 21.4884 21.5361C21.4872 21.5358 21.4857 21.5351 21.4846 21.5348L21.4816 21.5346C21.4805 21.5343 21.479 21.5336 21.4778 21.5333L21.4749 21.5331C21.4738 21.5329 21.4722 21.5321 21.4711 21.5319C21.4701 21.5316 21.4692 21.5309 21.4682 21.5307C21.4671 21.5304 21.4655 21.5307 21.4643 21.5304C21.4633 21.5302 21.4625 21.5294 21.4615 21.5292C21.4603 21.5289 21.4587 21.5292 21.4576 21.5289C21.4566 21.5287 21.4557 21.528 21.4547 21.5277C21.4536 21.5275 21.4519 21.5277 21.4508 21.5275C21.4497 21.5272 21.4481 21.5265 21.447 21.5262C21.446 21.526 21.4451 21.5252 21.4442 21.525C21.443 21.5247 21.4414 21.525 21.4403 21.5247C21.4393 21.5245 21.4384 21.5238 21.4374 21.5235C21.4363 21.5233 21.4347 21.5235 21.4335 21.5233C21.4325 21.523 21.4317 21.5223 21.4307 21.5221C21.4295 21.5218 21.4279 21.5221 21.4268 21.5218C21.4258 21.5215 21.4249 21.5208 21.4239 21.5206C21.4228 21.5203 21.4211 21.5206 21.42 21.5203C21.4189 21.52 21.4173 21.5193 21.4162 21.5191C21.4152 21.5188 21.4143 21.5181 21.4133 21.5179C21.4122 21.5176 21.4106 21.5178 21.4094 21.5176C21.4085 21.5173 21.4076 21.5166 21.4066 21.5164C21.4055 21.5161 21.4038 21.5164 21.4027 21.5161C21.4017 21.5159 21.4008 21.5152 21.3999 21.5149C21.3987 21.5147 21.3971 21.5149 21.396 21.5146C21.395 21.5144 21.3941 21.5137 21.3931 21.5134C21.392 21.5132 21.3904 21.5125 21.3893 21.5122C21.3882 21.5119 21.3865 21.5122 21.3854 21.5119C21.3844 21.5117 21.3835 21.511 21.3825 21.5107C21.3814 21.5105 21.3798 21.5107 21.3786 21.5104C21.3776 21.5102 21.3768 21.5095 21.3758 21.5092C21.3746 21.509 21.373 21.5092 21.3719 21.509C21.3709 21.5087 21.37 21.508 21.369 21.5078C21.3679 21.5075 21.3664 21.5068 21.3652 21.5065L21.3623 21.5063C21.3612 21.506 21.3596 21.5053 21.3585 21.505L21.3555 21.5048C21.3544 21.5046 21.3529 21.5038 21.3517 21.5036C21.3506 21.5033 21.349 21.5036 21.3478 21.5033C21.3468 21.5031 21.346 21.5023 21.345 21.5021C21.3438 21.5018 21.3423 21.5011 21.3411 21.5008L21.3382 21.5006C21.3371 21.5004 21.3355 21.4996 21.3344 21.4994L21.3315 21.4992C21.3303 21.4989 21.3288 21.4982 21.3277 21.4979L21.3247 21.4977L21.3171 21.4952L21.3142 21.495C21.313 21.4947 21.3115 21.494 21.3103 21.4937L21.3074 21.4935C21.3063 21.4932 21.3047 21.4925 21.3036 21.4922L21.3007 21.492C21.2995 21.4917 21.298 21.491 21.2968 21.4908C21.2959 21.4905 21.295 21.4898 21.294 21.4896C21.2929 21.4893 21.2912 21.4896 21.2901 21.4893C21.289 21.489 21.2874 21.4883 21.2863 21.488L21.2834 21.4878C21.2822 21.4875 21.2807 21.4868 21.2795 21.4866L21.2766 21.4863C21.2755 21.4861 21.2739 21.4853 21.2728 21.4851C21.2718 21.4848 21.2709 21.4841 21.2699 21.4839C21.2688 21.4836 21.2672 21.4839 21.266 21.4836C21.265 21.4834 21.2642 21.4827 21.2632 21.4824C21.262 21.4822 21.2604 21.4824 21.2593 21.4821C21.2583 21.4819 21.2574 21.4812 21.2564 21.4809C21.2553 21.4807 21.2537 21.4809 21.2525 21.4807C21.2514 21.4804 21.2499 21.4797 21.2487 21.4794C21.2477 21.4792 21.2469 21.4785 21.2459 21.4782C21.2447 21.4779 21.2431 21.4782 21.242 21.4779C21.241 21.4777 21.2401 21.477 21.2391 21.4767C21.238 21.4765 21.2364 21.4767 21.2352 21.4765C21.2342 21.4762 21.2334 21.4755 21.2324 21.4753C21.2312 21.475 21.2296 21.4753 21.2285 21.475C21.2275 21.4748 21.2266 21.474 21.2256 21.4738C21.2245 21.4735 21.2229 21.4728 21.2218 21.4725C21.2207 21.4723 21.219 21.4725 21.2179 21.4723C21.2169 21.472 21.216 21.4713 21.2151 21.4711C21.2139 21.4708 21.2123 21.4711 21.2112 21.4708C21.2102 21.4706 21.2093 21.4698 21.2083 21.4696C21.2072 21.4693 21.2056 21.4696 21.2044 21.4693C21.2034 21.4691 21.2025 21.4684 21.2016 21.4681C21.2004 21.4679 21.1988 21.4681 21.1977 21.4678C21.1967 21.4676 21.1958 21.4669 21.1948 21.4667C21.1937 21.4664 21.1921 21.4657 21.191 21.4654C21.1899 21.4651 21.1882 21.4654 21.1871 21.4651C21.1861 21.4649 21.1852 21.4642 21.1842 21.4639C21.1831 21.4637 21.1815 21.4639 21.1803 21.4636C21.1794 21.4634 21.1785 21.4627 21.1775 21.4625C21.1764 21.4622 21.1747 21.4624 21.1736 21.4622C21.1726 21.4619 21.1717 21.4612 21.1707 21.461C21.1696 21.4607 21.1681 21.46 21.1669 21.4597L21.164 21.4595C21.1629 21.4592 21.1613 21.4585 21.1602 21.4583L21.1573 21.458C21.1561 21.4578 21.1546 21.457 21.1534 21.4568C21.1523 21.4565 21.1507 21.4568 21.1495 21.4565C21.1485 21.4563 21.1477 21.4555 21.1467 21.4553C21.1455 21.455 21.144 21.4543 21.1429 21.454L21.1399 21.4538C21.1388 21.4536 21.1373 21.4528 21.1361 21.4526L21.1332 21.4524C21.1321 21.4521 21.1305 21.4514 21.1294 21.4511L21.1264 21.4509L21.1188 21.4484L21.1159 21.4482C21.1147 21.4479 21.1132 21.4472 21.112 21.4469L21.1091 21.4467C21.108 21.4464 21.1064 21.4457 21.1053 21.4454L21.1024 21.4452C21.1012 21.4449 21.0997 21.4442 21.0986 21.444C21.0976 21.4437 21.0967 21.443 21.0957 21.4428C21.0946 21.4425 21.0929 21.4428 21.0918 21.4425C21.0907 21.4422 21.0891 21.4415 21.088 21.4412L21.0851 21.441C21.0839 21.4407 21.0824 21.44 21.0812 21.4398L21.0783 21.4395C21.0772 21.4393 21.0756 21.4386 21.0745 21.4383C21.0735 21.4381 21.0726 21.4373 21.0716 21.4371C21.0705 21.4368 21.0689 21.4371 21.0677 21.4368C21.0668 21.4366 21.0659 21.4359 21.0649 21.4356C21.0638 21.4354 21.0621 21.4356 21.061 21.4353C21.06 21.4351 21.0591 21.4344 21.0581 21.4342C21.057 21.4339 21.0554 21.4341 21.0542 21.4339C21.0531 21.4336 21.0516 21.4329 21.0504 21.4326C21.0494 21.4324 21.0486 21.4317 21.0476 21.4314C21.0464 21.4312 21.0448 21.4314 21.0437 21.4311C21.0427 21.4309 21.0418 21.4302 21.0408 21.43C21.0397 21.4297 21.0381 21.4299 21.0369 21.4297C21.0359 21.4294 21.0351 21.4287 21.0341 21.4285C21.0329 21.4282 21.0313 21.4285 21.0302 21.4282C21.0292 21.428 21.0283 21.4272 21.0273 21.427C21.0262 21.4267 21.0246 21.426 21.0235 21.4258C21.0224 21.4255 21.0207 21.4257 21.0196 21.4255C21.0186 21.4252 21.0178 21.4245 21.0168 21.4243C21.0156 21.424 21.014 21.4243 21.0129 21.424C21.0119 21.4238 21.011 21.423 21.01 21.4228C21.0089 21.4225 21.0073 21.4228 21.0061 21.4225C21.0051 21.4223 21.0043 21.4216 21.0033 21.4213C21.0021 21.4211 21.0006 21.4203 20.9994 21.4201L20.9965 21.4199C20.9954 21.4196 20.9938 21.4189 20.9927 21.4186L20.9898 21.4184C20.9886 21.4181 20.9871 21.4174 20.986 21.4171C20.9848 21.4169 20.9832 21.4171 20.9821 21.4168C20.9811 21.4166 20.9802 21.4159 20.9792 21.4157C20.9781 21.4154 20.9764 21.4156 20.9753 21.4154C20.9743 21.4151 20.9734 21.4144 20.9725 21.4142C20.9713 21.4139 20.9698 21.4132 20.9686 21.4129L20.9657 21.4127C20.9646 21.4124 20.963 21.4117 20.9619 21.4115L20.959 21.4112C20.9578 21.411 20.9563 21.4103 20.9551 21.41C20.954 21.4097 20.9524 21.41 20.9512 21.4097C20.9503 21.4095 20.9494 21.4087 20.9484 21.4085C20.9473 21.4082 20.9457 21.4075 20.9446 21.4073L20.9416 21.407C20.9405 21.4068 20.939 21.4061 20.9378 21.4058L20.9349 21.4056C20.9338 21.4053 20.9322 21.4046 20.9311 21.4043L20.9282 21.4041L20.9205 21.4016L20.9176 21.4014C20.9164 21.4011 20.9149 21.4004 20.9138 21.4001C20.3541 21.2679 19.9181 20.9551 19.6545 20.5297C19.3911 20.1045 19.3035 19.5729 19.4276 19.0101L19.4277 19.0092C19.5921 18.3129 19.7607 17.6003 19.9251 16.9041C19.944 16.8239 19.9505 16.771 19.949 16.7374C19.9486 16.7266 19.9467 16.7197 19.9457 16.7156C19.9403 16.7151 19.9307 16.7158 19.9162 16.7174ZM32.7422 10.0812C32.7291 9.01748 31.8344 8.32033 30.7829 8.5134L30.5706 8.56351C29.0962 8.9922 27.6246 9.4258 26.153 9.85945C24.6815 10.2931 23.21 10.7276 21.7353 11.1564L21.7344 11.1553C20.6579 11.4792 19.5891 11.4671 18.5348 11.0304L18.5349 11.0294C17.2573 10.5147 15.9923 9.99454 14.7203 9.48377L13.4442 8.97738C12.7849 8.71606 12.1427 8.67808 11.561 8.84768C10.9792 9.01731 10.4508 9.39651 10.0214 9.97878C8.08846 12.5963 6.17118 15.2179 4.25385 17.8394L4.25281 17.8403C4.0327 18.1328 3.92323 18.463 3.91776 18.8214L3.92204 18.9774L3.93429 19.1046C4.02336 19.7319 4.48077 20.2434 5.10235 20.4197C5.7611 20.6066 6.43141 20.358 6.8531 19.776C8.11992 18.0044 9.3749 16.2133 10.6301 14.4216C10.711 14.3009 10.8014 14.2037 10.9207 14.156C11.0128 14.1191 11.1111 14.116 11.2186 14.1395L11.3289 14.1711L11.3298 14.1721C11.8177 14.3539 12.3248 14.5057 12.8226 14.6738C13.5626 14.9237 14.3071 15.1752 15.0511 15.426C15.7949 15.6767 16.5388 15.9273 17.2787 16.1771L17.2777 16.1771C18.1174 16.4099 18.9403 16.3622 19.7508 16.1129L20.1024 15.9917C21.5892 15.4069 23.0849 14.8574 24.5818 14.2929L31.5695 11.6317C32.3239 11.3449 32.7507 10.7688 32.7422 10.0812ZM8.81739 0.199104C10.9607 0.355811 12.5406 2.17601 12.3847 4.31165C12.2299 6.43152 10.3852 8.03313 8.25662 7.87787C6.12761 7.7224 4.53572 5.85413 4.70614 3.73523L4.72531 3.53982C4.97526 1.53298 6.77057 0.0496293 8.81739 0.199104ZM5.29246 4.00619C5.25529 5.71354 6.58119 7.15509 8.31483 7.2819C10.1337 7.41472 11.668 6.09537 11.8013 4.26904C11.9293 2.51526 10.6753 1.02457 8.94198 0.826054L8.77272 0.810756C6.96981 0.679094 5.41827 2.02765 5.30072 3.83936L5.30065 3.84033L5.29246 4.00619Z" fill="white" stroke="white" stroke-width="0.2"/>
<path d="M1 24.8359H34M1.60156 18.6484L8.90625 24.6641" stroke="white" stroke-linecap="round"/>
</svg>
