<svg width="24" height="24" viewBox="0 0 24 24" fill="none" xmlns="http://www.w3.org/2000/svg">
<path d="M17.5468 13.6177L15.6889 12.286C15.4556 12.1182 15.1681 12.049 14.8806 12.0943C14.5931 12.1369 14.3408 12.2887 14.1727 12.5177L13.5976 13.2901C13.5678 13.33 13.5787 13.2927 13.5651 13.3433C13.5624 13.3487 13.5298 13.3913 13.4268 13.4073C13.2532 13.4339 12.7324 13.4019 11.6068 12.5177L11.4983 12.4405C10.313 11.6655 10.1231 11.1888 10.096 11.0183C10.0825 10.9304 10.1042 10.8878 10.1014 10.8852C10.1394 10.8612 10.1286 10.8612 10.1584 10.8239L10.7334 10.0516C10.9043 9.82252 10.9748 9.54022 10.9287 9.25791C10.8826 8.97561 10.7307 8.72792 10.4975 8.56014L8.60696 7.20454C8.12416 6.85832 7.44337 6.96218 7.09076 7.43624L6.51032 8.21924C5.99769 8.90903 5.85936 9.85182 6.14958 10.6828C6.59712 11.9638 7.73901 13.3247 9.54542 14.7309C9.56983 14.7602 9.59696 14.7842 9.6295 14.8081C9.67561 14.8401 9.72172 14.8721 9.76783 14.9014C9.81123 14.936 9.85734 14.9679 9.90074 15.0026C9.93057 15.0265 9.96583 15.0452 10.0011 15.0585C11.916 16.3182 13.5841 16.9707 14.9647 17C14.9836 17 14.9999 17 15.0189 17C15.876 17 16.6924 16.5872 17.2105 15.8868L17.7909 15.1038C17.9618 14.8747 18.0323 14.5924 17.9862 14.3101C17.9401 14.0278 17.7801 13.7854 17.5468 13.6177ZM17.1264 14.635L16.5459 15.418C16.1716 15.9214 15.5831 16.2117 14.9728 16.201C14.0967 16.1824 12.5697 15.8282 10.2398 14.2568C8.00753 12.5577 7.19654 11.2367 6.91175 10.4244C6.70561 9.8385 6.80054 9.17269 7.16128 8.69064L7.74443 7.90764C7.78783 7.84905 7.85022 7.81176 7.92074 7.80111C7.99126 7.79046 8.06449 7.80644 8.12416 7.84905L10.0147 9.20465C10.0743 9.24726 10.1123 9.30851 10.1231 9.37776C10.134 9.447 10.1177 9.51891 10.0743 9.5775L9.5183 10.3259C9.38811 10.4644 9.25792 10.7174 9.27961 11.037C9.32301 11.6788 9.90074 12.3526 11.0345 13.093L11.1159 13.1489C12.1899 13.9932 13.0226 14.3288 13.6573 14.1716C13.9747 14.0944 14.1808 13.8973 14.2757 13.7322L14.8318 12.9838C14.9186 12.864 15.0894 12.84 15.2115 12.9252L17.0694 14.2568C17.1291 14.2995 17.1671 14.3607 17.1779 14.43C17.1861 14.5072 17.1698 14.5791 17.1264 14.635Z" fill="white"/>
<path d="M12.1907 0C5.74517 0 0.5 5.24517 0.5 11.6907C0.5 14.4545 1.47506 17.1174 3.25371 19.2222L1.17918 23.267C1.0884 23.4452 1.11194 23.6638 1.2397 23.8184C1.33721 23.9361 1.48179 24 1.62637 24C1.67344 24 1.72387 23.9933 1.77094 23.9798L7.33553 22.3256C8.86537 23.0249 10.4961 23.378 12.1907 23.378C18.6362 23.378 23.8813 18.1328 23.8813 11.6873C23.8813 5.2418 18.6362 0 12.1907 0ZM12.1907 22.3693C10.5835 22.3693 9.03684 22.0196 7.59106 21.3303C7.47674 21.2765 7.34898 21.2665 7.2313 21.3034L2.61488 22.6753L4.30611 19.3769C4.40025 19.1919 4.37335 18.9667 4.23214 18.8086C2.47702 16.8484 1.50869 14.3166 1.50869 11.6873C1.50869 5.79658 6.29994 1.00532 12.1907 1.00532C18.0814 1.00532 22.8727 5.79658 22.8727 11.6873C22.8727 17.578 18.0814 22.3693 12.1907 22.3693Z" fill="white"/>
</svg>
