<?xml version="1.0" encoding="UTF-8"?>
<svg id="Layer_1" data-name="Layer 1" xmlns="http://www.w3.org/2000/svg" version="1.1" viewBox="0 0 115.3 100">
  <defs>
    <style>
      .cls-1 {
        fill: #000;
        stroke-width: 0px;
      }
    </style>
  </defs>
  <path class="cls-1" d="M84.3,69.1v-30.4c0-2.1-1.7-3.8-3.8-3.8h-45.6c-2.1,0-3.8,1.7-3.8,3.8v30.4c0,2.1,1.7,3.8,3.8,3.8h45.6c2.1,0,3.8-1.7,3.8-3.8ZM33.8,38.7c0-.6.5-1.1,1.1-1.1h45.6c.6,0,1.1.5,1.1,1.1v3.4l-23.9,15.7-23.9-15.7v-3.4ZM33.8,69.1v-23.8l23.2,15.2h0c.5.3,1,.3,1.5,0l23.2-15.2v23.8c0,.6-.5,1.1-1.1,1.1h-45.6c-.6,0-1.1-.5-1.1-1.1h0Z"/>
  <path class="cls-1" d="M106.3,44.7h-7.7,0c-.4-14.3-8.3-27.4-20.8-34.4-12.5-7-27.7-7-40.2,0-12.5,7-20.4,20.1-20.8,34.4h-7.7c-2.5,0-4.5,2-4.5,4.5v19.4c0,2.5,2,4.5,4.5,4.5h9.1,0c.4,0,.7-.1,1-.4.3-.3.4-.6.4-1v-25.7s0,0,0-.1h0,0c0-10.1,4-19.9,11.2-27,7.2-7.2,16.9-11.2,27-11.2s19.9,4,27,11.2c7.2,7.2,11.2,16.9,11.2,27h0,0s0,0,0,.1v27.1c0,5.1-2,9.9-5.6,13.5-3.6,3.6-8.4,5.6-13.5,5.6h-10.2v-3.5c0-2.5-2-4.5-4.5-4.5h-8.8c-2.5,0-4.5,2-4.5,4.5v1.7c0,2.5,2,4.5,4.5,4.5h23.5c5.8,0,11.3-2.3,15.4-6.4,4.1-4.1,6.4-9.6,6.4-15.4h0c0,0,7.7,0,7.7,0h0c2.5,0,4.5-2,4.5-4.5v-19.4c0-2.5-2-4.5-4.5-4.5h0ZM16.7,70.4h-7.7c-1,0-1.8-.8-1.8-1.8v-19.4c0-1,.8-1.8,1.8-1.8h7.7v23ZM63.9,92.3h-10.6c-1,0-1.8-.8-1.8-1.8v-1.7c0-1,.8-1.8,1.8-1.8h8.8c1,0,1.8.8,1.8,1.8v3.5ZM108.1,68.6c0,1-.8,1.8-1.8,1.8h-7.7v-23h7.7,0c1,0,1.8.8,1.8,1.8v19.4Z"/>
</svg>