<svg width="10" height="15" viewBox="0 0 10 15" fill="none" xmlns="http://www.w3.org/2000/svg">
<path d="M7.57239 3.83333H8.90572C9.08932 3.83333 9.23905 3.68359 9.23905 3.5V0.833333C9.23905 0.649733 9.08931 0.5 8.90572 0.5H6.90572C4.88422 0.5 3.23905 2.14518 3.23905 4.16667V5.86H0.905721C0.722121 5.86 0.572388 6.00974 0.572388 6.19333V8.83333C0.572388 9.01693 0.722128 9.16667 0.905721 9.16667H3.00722V14.1667C3.00722 14.3503 3.15696 14.5 3.34055 14.5H6.12372C6.30732 14.5 6.45705 14.3503 6.45705 14.1667V9.16667H8.21039C8.36208 9.16667 8.49554 9.0651 8.53395 8.91667L9.22927 6.25C9.25596 6.14974 9.23448 6.04362 9.17068 5.96158C9.10753 5.8802 9.01052 5.83138 8.90766 5.83138H6.57433V4.83138C6.57433 4.27994 7.02289 3.83138 7.57433 3.83138L7.57239 3.83333ZM6.23905 6.5H8.47406L7.95257 8.5H6.12257C5.93897 8.5 5.78924 8.64974 5.78924 8.83333V13.8333H3.67274V8.83333C3.67274 8.64973 3.523 8.5 3.3394 8.5H1.2379V6.52667H3.57124C3.75484 6.52667 3.90457 6.37693 3.90457 6.19333V4.16667C3.90457 2.51302 5.24962 1.16667 6.90457 1.16667H8.57124V3.16667H7.57124C6.65262 3.16667 5.90457 3.91472 5.90457 4.83333V6.16667C5.90457 6.35027 6.05431 6.5 6.2379 6.5H6.23905Z" fill="white"/>
</svg>
