<svg width="94" height="34" viewBox="0 0 94 34" fill="none" xmlns="http://www.w3.org/2000/svg">
<g filter="url(#filter0_d_464_352)">
<path d="M39.5463 17.735C39.5463 21.7634 36.3822 24.7319 32.4993 24.7319C28.6163 24.7319 25.4523 21.7634 25.4523 17.735C25.4523 13.6782 28.6163 10.7382 32.4993 10.7382C36.3822 10.7382 39.5463 13.6782 39.5463 17.735ZM36.4614 17.735C36.4614 15.2177 34.6276 13.4953 32.4993 13.4953C30.3709 13.4953 28.5371 15.2177 28.5371 17.735C28.5371 20.2271 30.3709 21.9748 32.4993 21.9748C34.6276 21.9748 36.4614 20.224 36.4614 17.735Z" fill="#EA4335"/>
<path d="M55.1681 17.735C55.1681 21.7634 52.0041 24.7319 48.1211 24.7319C44.2381 24.7319 41.0741 21.7634 41.0741 17.735C41.0741 13.6814 44.2381 10.7382 48.1211 10.7382C52.0041 10.7382 55.1681 13.6782 55.1681 17.735ZM52.0832 17.735C52.0832 15.2177 50.2494 13.4953 48.1211 13.4953C45.9927 13.4953 44.1589 15.2177 44.1589 17.735C44.1589 20.2271 45.9927 21.9748 48.1211 21.9748C50.2494 21.9748 52.0832 20.224 52.0832 17.735Z" fill="#FBBC05"/>
<path d="M69.8418 11.1609V23.7224C69.8418 28.8896 66.7823 31 63.1653 31C59.7606 31 57.7114 28.7319 56.9386 26.877L59.6244 25.7634C60.1027 26.9022 61.2745 28.2461 63.1622 28.2461C65.4774 28.2461 66.9121 26.8233 66.9121 24.1451V23.1388H66.8044C66.114 23.9874 64.7838 24.7287 63.1052 24.7287C59.5927 24.7287 56.3749 21.6814 56.3749 17.7602C56.3749 13.8107 59.5927 10.7382 63.1052 10.7382C64.7806 10.7382 66.1108 11.4795 66.8044 12.3028H66.9121V11.164H69.8418V11.1609ZM67.1307 17.7602C67.1307 15.2965 65.4805 13.4953 63.3807 13.4953C61.2524 13.4953 59.4692 15.2965 59.4692 17.7602C59.4692 20.1987 61.2524 21.9748 63.3807 21.9748C65.4805 21.9748 67.1307 20.1987 67.1307 17.7602Z" fill="#4285F4"/>
<path d="M75.5672 3.79822V24.303H72.5583V3.79822H75.5672Z" fill="#34A853"/>
<path d="M88.1545 20.0378L90.5489 21.6277C89.7761 22.7665 87.9138 24.7287 84.696 24.7287C80.7053 24.7287 77.725 21.6561 77.725 17.7318C77.725 13.5709 80.7306 10.735 84.3507 10.735C87.9962 10.735 89.7793 13.6246 90.3621 15.1861L90.6819 15.981L81.2912 19.8549C82.0102 21.2587 83.1282 21.9747 84.696 21.9747C86.2669 21.9747 87.3564 21.205 88.1545 20.0378ZM80.7845 17.5205L87.0618 14.9243C86.7166 14.0504 85.6778 13.4416 84.4553 13.4416C82.8875 13.4416 80.7053 14.8202 80.7845 17.5205V17.5205Z" fill="#EA4335"/>
<path d="M14.063 15.9148V12.9464H24.1061C24.2043 13.4637 24.255 14.0757 24.255 14.7382C24.255 16.9653 23.6437 19.7193 21.6737 21.6814C19.7576 23.6688 17.3094 24.7287 14.0662 24.7287C8.05483 24.7287 3 19.8517 3 13.8644C3 7.87697 8.05483 3 14.0662 3C17.3917 3 19.7608 4.29969 21.5407 5.99369L19.4377 8.08833C18.1613 6.8959 16.432 5.96846 14.063 5.96846C9.67327 5.96846 6.24003 9.49212 6.24003 13.8644C6.24003 18.2366 9.67327 21.7603 14.063 21.7603C16.9103 21.7603 18.5319 20.6215 19.5707 19.5868C20.4132 18.7476 20.9675 17.5489 21.186 15.9117L14.063 15.9148V15.9148Z" fill="#4285F4"/>
</g>
<defs>
<filter id="filter0_d_464_352" x="0" y="0" width="93.6819" height="34" filterUnits="userSpaceOnUse" color-interpolation-filters="sRGB">
<feFlood flood-opacity="0" result="BackgroundImageFix"/>
<feColorMatrix in="SourceAlpha" type="matrix" values="0 0 0 0 0 0 0 0 0 0 0 0 0 0 0 0 0 0 127 0" result="hardAlpha"/>
<feOffset/>
<feGaussianBlur stdDeviation="1.5"/>
<feColorMatrix type="matrix" values="0 0 0 0 1 0 0 0 0 1 0 0 0 0 1 0 0 0 1 0"/>
<feBlend mode="normal" in2="BackgroundImageFix" result="effect1_dropShadow_464_352"/>
<feBlend mode="normal" in="SourceGraphic" in2="effect1_dropShadow_464_352" result="shape"/>
</filter>
</defs>
</svg>
