<svg width="22" height="24" viewBox="0 0 22 24" fill="none" xmlns="http://www.w3.org/2000/svg">
<path d="M2.66667 24H19.36C20.8 24 22 22.7993 22 21.3585V9.19177C22 8.2846 21.52 7.40411 20.6933 6.92385L12.3867 0.386882C12.3867 0.386882 12.36 0.386882 12.36 0.3602C11.56 -0.120067 10.52 -0.120067 9.66667 0.3602C9.66667 0.3602 9.64 0.3602 9.64 0.386882L1.30667 6.92385C0.506666 7.37743 0 8.25792 0 9.19177V21.3585C0 22.7993 1.2 24 2.64 24H2.66667ZM8.01333 22.9327V16.0489C8.01333 15.1684 8.70667 14.448 9.61333 14.448H12.44C13.32 14.448 14.04 15.1417 14.04 16.0489V22.9327H8.04H8.01333ZM1.06667 9.16509C1.06667 8.60478 1.38667 8.07115 1.84 7.77765C1.84 7.77765 1.86667 7.77765 1.86667 7.75097L10.2 1.24069C10.68 0.947193 11.2933 0.947193 11.8 1.24069L20.1067 7.77765C20.1067 7.77765 20.1333 7.77765 20.1333 7.80434C20.6133 8.09783 20.9067 8.60478 20.9067 9.19177V21.3585C20.9067 22.239 20.2133 22.9594 19.3067 22.9594H15.0267V16.0756C15.0267 14.6348 13.8267 13.4341 12.3867 13.4341H9.56C8.12 13.4341 6.92 14.6348 6.92 16.0756V22.9594H2.61333C1.76 22.9594 1.06667 22.2657 1.06667 21.3585V9.19177V9.16509Z" fill="white"/>
</svg>
