<?xml version="1.0" encoding="UTF-8"?>
<svg id="Layer_1" data-name="Layer 1" xmlns="http://www.w3.org/2000/svg" version="1.1" viewBox="0 0 100 100">
  <defs>
    <style>
      .cls-1 {
        fill: #000;
        stroke-width: 0px;
      }
    </style>
  </defs>
  <path class="cls-1" d="M15,95.2h70.1c5.4,0,9.9-4.5,9.9-9.9v-45.6c0-3.4-1.8-6.7-4.9-8.5L55.2,6.7s-.1,0-.1-.1c-3-1.8-6.9-1.8-10.1,0,0,0-.1,0-.1.1L9.9,31.2c-3,1.7-4.9,5-4.9,8.5v45.6c0,5.4,4.5,9.9,9.9,9.9h0ZM38.8,91.2v-25.8c0-3.3,2.6-6,6-6h10.6c3.3,0,6,2.6,6,6v25.8h-22.5ZM9,39.6c0-2.1,1.2-4.1,2.9-5.2,0,0,.1,0,.1-.1L47,9.9c1.8-1.1,4.1-1.1,6,0l34.9,24.5s.1,0,.1.1c1.8,1.1,2.9,3,2.9,5.2v45.6c0,3.3-2.6,6-6,6h-19.8v-25.8c0-5.4-4.5-9.9-9.9-9.9h-10.6c-5.4,0-9.9,4.5-9.9,9.9v25.8H14.8c-3.2,0-5.8-2.6-5.8-6v-45.6Z"/>
</svg>