<svg width="14" height="13" viewBox="0 0 14 13" fill="none" xmlns="http://www.w3.org/2000/svg">
<path d="M10.6208 0H3.19221C1.65598 0 0.406494 1.24952 0.406494 2.78571V10.2143C0.406494 11.7505 1.65601 13 3.19221 13H10.6208C12.157 13 13.4065 11.7505 13.4065 10.2143V2.78571C13.4065 1.24949 12.157 0 10.6208 0ZM12.4779 10.2143C12.4779 11.2386 11.6451 12.0714 10.6208 12.0714H3.19221C2.16788 12.0714 1.33507 11.2386 1.33507 10.2143V2.78571C1.33507 1.76139 2.16788 0.928571 3.19221 0.928571H10.6208C11.6451 0.928571 12.4779 1.76139 12.4779 2.78571V10.2143ZM6.90649 2.78571C4.85844 2.78571 3.19221 4.45194 3.19221 6.5C3.19221 8.54806 4.85844 10.2143 6.90649 10.2143C8.95455 10.2143 10.6208 8.54806 10.6208 6.5C10.6208 4.45194 8.95455 2.78571 6.90649 2.78571ZM6.90649 9.28571C5.37027 9.28571 4.12078 8.0362 4.12078 6.5C4.12078 4.9638 5.3703 3.71429 6.90649 3.71429C8.44269 3.71429 9.69221 4.9638 9.69221 6.5C9.69221 8.0362 8.44269 9.28571 6.90649 9.28571ZM10.9505 2.45603C11.034 2.54425 11.0851 2.66496 11.0851 2.78568C11.0851 2.90641 11.034 3.02711 10.9505 3.11533C10.8622 3.19891 10.7415 3.24998 10.6208 3.24998C10.5001 3.24998 10.3794 3.19891 10.2912 3.11533C10.2076 3.02712 10.1565 2.90641 10.1565 2.78568C10.1565 2.66496 10.2076 2.54426 10.2912 2.45603C10.4629 2.28889 10.774 2.28426 10.9505 2.45603Z" fill="white"/>
</svg>
