<svg width="198" height="49" viewBox="0 0 198 49" fill="none" xmlns="http://www.w3.org/2000/svg">
<path d="M31.2846 9.30834C29.7317 6.7564 27.2288 5.35166 24.244 5.35166C21.2592 5.35166 18.7563 6.7564 17.2034 9.30834L4.95795 29.4195C4.19127 30.6779 2.54085 31.0798 1.28256 30.3131C0.0242672 29.5463 -0.377606 27.8938 0.389075 26.6354L12.6345 6.52423C15.1589 2.3783 19.3922 0 24.2459 0C29.0996 0 33.331 2.3783 35.8554 6.52423L48.1008 26.6354C48.8675 27.8938 48.4656 29.5444 47.2073 30.3131C45.949 31.0798 44.2967 30.6779 43.53 29.4195L31.2846 9.30834Z" fill="white"/>
<path d="M94.3182 25.338C95.7969 25.338 97.0006 26.5418 97.0006 28.0206C97.0006 29.4995 95.7969 30.7033 94.3182 30.7033H68.7622C60.0965 30.7033 55.1219 23.4552 55.1219 15.3526V2.68461C55.1219 1.20574 56.3256 0.00195312 57.8043 0.00195312C59.283 0.00195312 60.4867 1.20574 60.4867 2.68461V15.3526C60.4867 18.0938 61.3197 21.1277 63.2627 23.1372C64.7532 24.6805 66.6377 25.336 68.7622 25.336H94.3182V25.338Z" fill="white"/>
<path d="M137.473 12.67C141.763 12.7109 145.337 15.9048 145.973 20.0351C146.035 20.437 146.068 20.8467 146.074 21.2642V22.109C146.07 22.5265 146.035 22.9363 145.973 23.3382C145.335 27.4685 141.763 30.6623 137.473 30.7033H116.913C113.329 30.7033 110.063 29.4605 107.557 26.8676C104.626 23.8376 103.273 19.5083 103.273 15.3526C103.273 7.25001 108.249 0.00195312 116.913 0.00195312H142.471C143.95 0.00195312 145.153 1.20574 145.153 2.68461C145.153 4.16349 143.95 5.36727 142.471 5.36727H116.913C111.281 5.36727 108.639 10.2761 108.639 15.3526C108.639 18.0938 109.47 21.1277 111.415 23.1372C112.908 24.6805 114.792 25.336 116.915 25.336H137.389C139.215 25.336 140.709 23.8435 140.709 22.0173V21.3559C140.709 19.5298 139.215 18.0353 137.389 18.0353H118.624C117.145 18.0353 115.941 16.8315 115.941 15.3526C115.941 13.8737 117.145 12.67 118.624 12.67H137.475H137.473Z" fill="white"/>
<path d="M152.309 15.3526C152.309 7.25001 157.286 0.00195312 165.949 0.00195312H184.231C187.814 0.00195312 191.082 1.24476 193.587 3.83767C196.515 6.86761 197.871 11.1969 197.871 15.3546C197.871 23.4572 192.894 30.7052 184.231 30.7052H165.949C162.365 30.7052 159.098 29.4624 156.593 26.8695C153.663 23.8396 152.309 19.5083 152.309 15.3546V15.3526ZM184.232 25.338C186.355 25.338 188.24 24.6824 189.732 23.1392C191.675 21.1277 192.508 18.0938 192.508 15.3546C192.508 10.278 189.867 5.36922 184.234 5.36922H165.953C163.831 5.36922 161.946 6.02477 160.454 7.56803C158.511 9.57954 157.678 12.6134 157.678 15.3546C157.678 20.4311 160.321 25.338 165.953 25.338H184.234H184.232Z" fill="white"/>
<path d="M61.3295 48.2684C61.3295 48.6703 61.0017 48.998 60.5999 48.998C60.198 48.998 59.8702 48.6703 59.8702 48.2684V47.0139C59.8839 45.734 60.9295 44.6902 62.2093 44.6765H68.5164C69.2206 44.6765 69.802 44.0971 69.802 43.3928C69.802 42.6884 69.2226 42.107 68.5164 42.107H60.5999C60.198 42.107 59.8702 41.7793 59.8702 41.3773C59.8702 40.9754 60.198 40.6477 60.5999 40.6477H68.5164C70.0263 40.6477 71.2612 41.8807 71.2612 43.3928C71.2612 44.9048 70.0263 46.1359 68.5164 46.1359H62.2327C61.7372 46.1359 61.3295 46.5417 61.3295 47.0392V48.2684Z" fill="white"/>
<path d="M73.6978 40.6496C74.0997 40.6496 74.4274 40.9774 74.4274 41.3793V48.2703C74.4274 48.6722 74.0997 49 73.6978 49C73.2959 49 72.9682 48.6722 72.9682 48.2703V41.3793C72.9682 40.9774 73.2959 40.6496 73.6978 40.6496Z" fill="white"/>
<path d="M86.7899 47.5387C87.1918 47.5387 87.5195 47.8664 87.5195 48.2684C87.5195 48.6703 87.1918 48.998 86.7899 48.998H79.8391C77.4824 48.998 76.1286 47.0275 76.1286 44.8228V41.3773C76.1286 40.9754 76.4563 40.6477 76.8582 40.6477C77.26 40.6477 77.5878 40.9754 77.5878 41.3773V44.8228C77.5878 45.5681 77.8141 46.3934 78.3428 46.9397C78.7485 47.3592 79.2616 47.5367 79.8391 47.5367H86.7899V47.5387Z" fill="white"/>
<path d="M97.8375 43.1801C97.4161 42.4855 96.7353 42.1031 95.9237 42.1031C95.1122 42.1031 94.4313 42.4855 94.01 43.1801L90.6799 48.6488C90.4711 48.9902 90.0224 49.1014 89.681 48.8927C89.3396 48.6839 89.2304 48.2352 89.4391 47.8918L92.7692 42.4231C93.4559 41.2954 94.6069 40.6496 95.9257 40.6496C97.2445 40.6496 98.3974 41.2954 99.0821 42.4231L102.412 47.8918C102.621 48.2352 102.512 48.6839 102.168 48.8927C101.827 49.1014 101.376 48.9922 101.17 48.6488L97.8395 43.1801H97.8375Z" fill="white"/>
<path d="M105.054 42.109C104.652 42.109 104.324 41.7812 104.324 41.3793C104.324 40.9774 104.652 40.6496 105.054 40.6496H114.983C115.385 40.6496 115.713 40.9774 115.713 41.3793C115.713 41.7812 115.385 42.109 114.983 42.109H110.748V48.2684C110.748 48.6703 110.42 48.998 110.019 48.998C109.617 48.998 109.289 48.6703 109.289 48.2684V42.109H105.054Z" fill="white"/>
<path d="M128.813 48.2684C128.813 48.6703 128.485 48.998 128.083 48.998H121.133C120.157 48.998 119.269 48.6605 118.587 47.9562C117.791 47.1329 117.422 45.9544 117.422 44.8248C117.422 42.6201 118.774 40.6496 121.133 40.6496H128.083C128.485 40.6496 128.813 40.9774 128.813 41.3793C128.813 41.7812 128.513 42.0817 128.134 42.107H121.134C119.607 42.107 118.881 43.4357 118.881 44.8248C118.881 45.5701 119.108 46.3954 119.636 46.9436C120.042 47.3631 120.555 47.5406 121.133 47.5406H128.132C128.511 47.566 128.811 47.884 128.811 48.2684H128.813ZM127.081 45.5545C127.483 45.5545 127.81 45.2267 127.81 44.8248V44.8111C127.802 44.4151 127.477 44.0951 127.081 44.0951H121.066C120.664 44.0951 120.337 44.4229 120.337 44.8248C120.337 45.2267 120.664 45.5545 121.066 45.5545H127.081Z" fill="white"/>
<path d="M140.701 46.5476C140.701 46.0032 140.253 45.5545 139.708 45.5545H132.972C132.524 45.5545 132.087 45.4316 131.704 45.1994C130.973 44.7546 130.522 43.9624 130.522 43.102C130.522 41.7519 131.624 40.6496 132.974 40.6496H141.181C141.583 40.6496 141.911 40.9774 141.911 41.3793C141.911 41.7812 141.583 42.109 141.181 42.109H132.974C132.43 42.109 131.981 42.5577 131.981 43.102C131.981 43.6464 132.43 44.0951 132.974 44.0951H139.71C140.159 44.0951 140.596 44.218 140.98 44.4502C141.712 44.895 142.163 45.6872 142.163 46.5476C142.163 47.8977 141.06 49 139.71 49H131.503C131.101 49 130.774 48.6722 130.774 48.2703C130.774 47.8684 131.101 47.5406 131.503 47.5406H139.71C140.255 47.5406 140.703 47.0919 140.703 46.5476H140.701Z" fill="white"/>
</svg>
