<svg width="27" height="27" viewBox="0 0 27 27" fill="none" xmlns="http://www.w3.org/2000/svg">
<path d="M9.97126 18.9874C9.97566 18.9798 9.99986 18.9456 10.023 18.9127C10.1913 18.6825 10.3178 18.3081 10.3859 17.8362C10.431 17.5263 10.4332 17.4289 10.4332 16.2475V15.147H9.97346C9.55328 15.147 9.50488 15.1495 9.42239 15.1685C9.29259 15.2001 9.15839 15.2848 9.0682 15.3936C8.9967 15.4809 8.9989 15.486 9.0033 15.2216C9.0088 15.0028 9.011 14.9787 9.0385 14.8598C9.0825 14.6713 9.143 14.5309 9.23429 14.4057C9.35859 14.2337 9.48508 14.1375 9.66548 14.073C9.70397 14.0604 9.78537 14.0553 10.0736 14.0528L10.4332 14.0465V12.9497L9.41688 12.9573L9.32889 12.9978C9.22439 13.0459 9.17709 13.0813 9.0748 13.1863L9 13.2635L9.0044 13.0219C9.0099 12.798 9.011 12.7727 9.0385 12.6588C9.13419 12.2566 9.36519 11.9694 9.66988 11.8758C9.74577 11.8518 9.77547 11.8505 10.0934 11.8454L10.4332 11.8404V10.707C10.4332 10.0227 10.4299 9.51794 10.4244 9.43192C10.4189 9.3535 10.4013 9.20676 10.3859 9.1043C10.3145 8.63247 10.1858 8.27702 10.001 8.0468L9.96356 8H11.8236C12.9357 8 13.7672 8.00506 13.8893 8.01138C14.1038 8.02403 14.5823 8.07843 14.6901 8.10499C14.7242 8.11258 14.788 8.12397 14.8298 8.13155C14.9189 8.14673 15.0663 8.18215 15.2786 8.24414C15.5778 8.33015 15.8505 8.43767 16.1178 8.57429C16.2014 8.6173 16.4412 8.7577 16.505 8.80198C16.5391 8.82475 16.5798 8.85258 16.5952 8.86143C16.6381 8.888 16.7096 8.94112 16.8141 9.02714C16.8658 9.07015 16.9175 9.11189 16.9285 9.12075C16.9747 9.15616 17.1342 9.30922 17.2068 9.38638C17.4829 9.67859 17.7139 10.0037 17.8932 10.3515C17.9185 10.4021 17.9515 10.4654 17.9658 10.492C18.0021 10.5628 18.1517 10.917 18.166 10.9701C18.1726 10.9941 18.1814 11.0194 18.1858 11.0245C18.2144 11.0675 18.3794 11.6646 18.3991 11.7948C18.4057 11.8366 18.4091 11.8429 18.4365 11.8492C18.4541 11.853 18.7104 11.853 19.0063 11.8505C19.5981 11.8454 19.5981 11.8454 19.729 11.7759C19.8027 11.7367 19.8247 11.719 19.9061 11.6342C20.0128 11.5241 20.0029 11.5064 19.9963 11.7822C19.9919 11.9441 19.9864 12.044 19.9765 12.0845C19.9391 12.2401 19.9303 12.273 19.8973 12.3514C19.7895 12.6221 19.6091 12.8157 19.3781 12.908L19.2879 12.946L18.9205 12.951L18.5542 12.9573L18.5586 13.1053C18.563 13.3001 18.563 13.6859 18.5575 13.8845L18.5531 14.0439L19.0437 14.0465C19.4639 14.049 19.542 14.0465 19.5882 14.0325C19.7268 13.9883 19.8203 13.9276 19.9347 13.8074L19.9985 13.7391V13.9263C19.9985 14.1489 19.9886 14.2476 19.949 14.3943C19.8709 14.6916 19.7169 14.9129 19.4969 15.0496C19.3539 15.1381 19.3451 15.1406 18.8534 15.1444C18.5652 15.147 18.4145 15.152 18.4068 15.1596C18.4002 15.1672 18.3948 15.1799 18.3948 15.19C18.3948 15.2001 18.3783 15.2798 18.3563 15.3658C18.0989 16.4119 17.6182 17.243 16.9153 17.859C16.8196 17.9438 16.5853 18.1221 16.4907 18.1828C16.4544 18.2069 16.4148 18.2322 16.4049 18.2398C16.3587 18.2689 16.0936 18.4181 16.0276 18.4497C15.988 18.47 15.9363 18.4953 15.9132 18.5054C15.525 18.6989 14.8738 18.8824 14.3766 18.9393C14.2952 18.9481 14.1874 18.9621 14.1379 18.9671C13.9135 18.9962 13.6022 19 11.8346 19C10.3409 19 9.96576 18.9962 9.97126 18.9874ZM13.6088 18.4396C13.9806 18.4143 14.2094 18.3814 14.4767 18.3068C15.2929 18.0842 15.867 17.6136 16.2839 16.8268C16.3224 16.7535 16.4852 16.3714 16.5094 16.2943C16.6249 15.9363 16.681 15.7238 16.7305 15.443C16.7426 15.3747 16.7591 15.2836 16.7668 15.2406C16.7745 15.1988 16.7778 15.1596 16.7745 15.1558C16.769 15.1508 15.6647 15.1482 14.3183 15.1495L11.8709 15.152L11.8676 16.7775C11.8665 17.6705 11.8676 18.4131 11.8709 18.427L11.8753 18.451H12.6574C13.0863 18.451 13.5153 18.446 13.6088 18.4396ZM16.8812 14.0085C16.8889 13.9541 16.8889 13.0307 16.8812 12.9852L16.8746 12.951L11.8709 12.9573L11.8687 13.4937C11.8665 13.7884 11.8687 14.0338 11.8709 14.0389C11.8742 14.0452 12.9401 14.049 14.3755 14.049H16.8746L16.8812 14.0085ZM16.769 11.8366C16.7745 11.8176 16.7481 11.662 16.6942 11.409C16.6326 11.1244 16.549 10.8373 16.4643 10.6248C16.4225 10.516 16.318 10.2807 16.2927 10.2364C16.2806 10.2162 16.2454 10.1517 16.2146 10.0948C16.0166 9.73804 15.7339 9.41295 15.4117 9.17261C15.294 9.08659 15.052 8.93986 14.9871 8.91709C14.9739 8.91329 14.9596 8.9057 14.9541 8.90064C14.9464 8.89305 14.8463 8.85005 14.7297 8.80198C14.5152 8.7147 14.1071 8.61983 13.7793 8.58061C13.567 8.55658 13.5329 8.55531 12.7157 8.55531H11.8698V11.8379L14.2996 11.8429C15.6361 11.8454 16.7371 11.8492 16.7459 11.8518C16.7558 11.853 16.7657 11.8454 16.769 11.8366Z" fill="white"/>
<circle cx="13.5" cy="13.5" r="13" stroke="white"/>
</svg>
