<svg width="31" height="24" viewBox="0 0 31 24" fill="none" xmlns="http://www.w3.org/2000/svg">
<path d="M9.63157 13.2228C9.61267 13.2253 9.59377 13.2265 9.5736 13.2265L9.53202 13.224C9.12127 13.2388 8.74451 13.3595 8.45217 13.5553C8.18001 13.7363 7.98597 13.9801 7.91539 14.2535C7.84861 14.5121 7.91161 14.7744 8.15983 15.0219C8.4446 15.3051 8.94357 15.5723 9.71595 15.8051C10.6521 16.0858 11.2847 16.438 11.6778 16.8271C12.1969 17.3431 12.3191 17.9157 12.1704 18.4883L12.1641 18.5117C12.0293 19.0067 11.6954 19.4316 11.2405 19.7345C10.9054 19.9574 10.5009 20.1162 10.0586 20.1876V20.9327C10.0586 21.1937 9.84191 21.4055 9.57479 21.4055C9.30766 21.4055 9.09094 21.1937 9.09094 20.9327V20.2C8.69277 20.1458 8.31982 20.0214 7.99725 19.8404C7.50837 19.5658 7.13161 19.1594 6.94891 18.6706C6.85819 18.4255 6.98797 18.1546 7.23746 18.066C7.4882 17.9773 7.7654 18.1041 7.85614 18.3479C7.9582 18.6225 8.18248 18.859 8.47608 19.024C8.77092 19.1902 9.13382 19.285 9.52064 19.2863L9.57482 19.2838L9.61388 19.285C10.0259 19.2715 10.4039 19.1496 10.6975 18.9538C10.9646 18.7765 11.1574 18.5388 11.2305 18.2703L11.2343 18.2531C11.301 17.997 11.2393 17.7347 10.9898 17.4872C10.7051 17.2039 10.2061 16.9367 9.4337 16.704C8.49752 16.4232 7.86371 16.071 7.47186 15.6819C6.95398 15.1659 6.8305 14.5946 6.9792 14.0207C7.11024 13.5146 7.44792 13.0812 7.90909 12.7746C8.24427 12.5517 8.64874 12.3928 9.091 12.3214V11.5764C9.091 11.3153 9.30773 11.1035 9.57485 11.1035C9.84197 11.1035 10.0587 11.3153 10.0587 11.5764V12.3091C10.4569 12.3633 10.8298 12.4876 11.1536 12.6686C11.6425 12.9432 12.0193 13.3496 12.2007 13.8385C12.2914 14.0835 12.1617 14.3544 11.9122 14.4431C11.6614 14.5318 11.3842 14.4049 11.2935 14.1611C11.1914 13.8865 10.9672 13.6501 10.6736 13.4851C10.38 13.3201 10.0184 13.2252 9.63278 13.2228L9.63157 13.2228ZM9.5232 0.967811L18.3447 0.0356432C19.0869 -0.0419345 19.8038 0.00362751 20.4704 0.20681C21.0991 0.398911 21.6787 0.730173 22.184 1.22397L29.2488 8.12837C30.0829 8.95834 30.5 10.042 30.5 11.1232C30.5 12.2167 30.0729 13.3126 29.2211 14.145L24.8274 18.4414C24.6384 18.6262 24.3322 18.6262 24.1432 18.4414C23.9542 18.2567 23.9542 17.9575 24.1432 17.7728L28.5382 13.4776C29.2022 12.8311 29.5323 11.9778 29.5323 11.1232C29.5323 10.2784 29.2085 9.43489 28.5621 8.79088L21.5009 1.89121C21.1128 1.50948 20.6667 1.25458 20.1829 1.10802C19.6487 0.945476 19.0615 0.909762 18.4466 0.973797L10.7844 1.78406L16.7883 6.50637C17.3691 6.96322 17.8429 7.49273 18.168 8.09736C18.4754 8.66996 18.6455 9.3029 18.6455 9.9999V19.7257C18.6455 20.0976 18.5964 20.4584 18.5044 20.802C18.953 20.9325 19.4242 20.9719 19.8854 20.919C20.4776 20.8512 21.0547 20.6333 21.5499 20.2639C21.7616 20.1062 22.0652 20.1456 22.2265 20.3525C22.3878 20.5594 22.3475 20.8562 22.1358 21.0138C21.4982 21.4891 20.7561 21.7699 19.995 21.8573C19.3789 21.9275 18.7514 21.8696 18.1554 21.6862C17.9475 22.0778 17.6779 22.4349 17.3616 22.7439L17.3591 22.7464C16.5666 23.5197 15.4728 24 14.2708 24H4.87479C3.67146 24 2.57903 23.5198 1.78523 22.7452L1.78271 22.7427C0.991428 21.9682 0.5 20.9005 0.5 19.7245V9.99873C0.5 9.30299 0.671363 8.66879 0.977558 8.09744C1.30264 7.49158 1.77642 6.96207 2.35727 6.50523L9.2621 1.07457L9.26966 1.06841L9.27092 1.06718L9.27848 1.06102L9.27974 1.05979L9.2873 1.05487L9.28982 1.05364L9.29612 1.04871L9.29864 1.04625L9.30494 1.04255L9.30872 1.04009L9.31502 1.0364L9.3188 1.03393L9.32888 1.02901L9.33266 1.02654L9.34148 1.02162L9.34904 1.01793L9.3503 1.01669L9.35912 1.013H9.36038L9.37046 1.00807L9.37928 1.00438L9.39188 0.998223L9.39818 0.99576L9.40826 0.990834L9.41456 0.988371L9.4259 0.984677L9.42842 0.983446L9.43724 0.980983H9.4385L9.44858 0.97852H9.44984L9.45866 0.976057L9.46118 0.974826L9.46874 0.973595L9.47882 0.971131L9.48512 0.9699H9.4889L9.49772 0.968669H9.49898L9.50906 0.967437H9.51032L9.5204 0.966206H9.52292L9.5232 0.967811ZM22.8871 18.9993C23.0761 18.8146 23.3823 18.8146 23.5713 18.9993C23.7603 19.184 23.7603 19.4832 23.5713 19.6679L23.4654 19.7714C23.2764 19.9561 22.9702 19.9561 22.7812 19.7714C22.5922 19.5867 22.5922 19.2874 22.7812 19.1027L22.8871 18.9993ZM9.58997 5.05113C10.0713 5.05113 10.5111 5.24446 10.8286 5.55602C11.1473 5.8651 11.3452 6.29488 11.3452 6.76648V7.73928C11.3452 8.21091 11.1474 8.64068 10.8298 8.951C10.5123 9.26133 10.0725 9.45466 9.58994 9.45466C9.10735 9.45466 8.6676 9.26133 8.35007 8.951C8.03253 8.64067 7.8347 8.21091 7.8347 7.73928V6.76648C7.8347 6.29485 8.03253 5.86508 8.35007 5.55476C8.66761 5.24443 9.10738 5.05113 9.58997 5.05113ZM10.1457 6.22218C10.0045 6.08303 9.80671 5.99684 9.58997 5.99684C9.37451 5.99684 9.1767 6.08427 9.03429 6.22342C8.89191 6.36257 8.80245 6.5559 8.80245 6.76648V7.73928C8.80245 7.94986 8.89191 8.14317 9.03429 8.28235C9.17667 8.4215 9.3745 8.50893 9.58997 8.50893C9.80545 8.50893 10.0032 8.4215 10.1457 8.28235C10.288 8.1432 10.3775 7.94987 10.3775 7.73928V6.76648C10.3775 6.55591 10.288 6.36259 10.1457 6.22218ZM9.57362 2.04272L2.96362 7.24167C2.48103 7.62094 2.09169 8.05194 1.83338 8.53467C1.59902 8.97058 1.46924 9.45946 1.46924 10.0013V19.7271C1.46924 20.6445 1.85228 21.4769 2.46719 22.0791C3.08461 22.6825 3.93638 23.0568 4.87636 23.0568H14.2724C15.2111 23.0568 16.0629 22.6825 16.679 22.0815C17.0129 21.7552 17.28 21.3611 17.4526 20.9228L17.4577 20.9117C17.6013 20.5435 17.6794 20.1445 17.6794 19.7283V10.0025C17.6794 9.46064 17.5484 8.97179 17.3153 8.53588C17.057 8.05441 16.6676 7.62341 16.1851 7.24411L9.57505 2.04516L9.57362 2.04272Z" fill="white"/>
</svg>
