<?xml version="1.0" encoding="UTF-8"?>
<svg id="Layer_1" data-name="Layer 1" xmlns="http://www.w3.org/2000/svg" version="1.1" xmlns:xodm="http://www.corel.com/coreldraw/odm/2003" viewBox="0 0 100 100">
  <defs>
    <style>
      .cls-1 {
        fill: #000;
        stroke-width: 0px;
      }
    </style>
  </defs>
  <path class="cls-1" d="M20.2,50.5l2.9-13.7h0c-3.1-1.4-5.8-3.7-7.6-6.8-1.8-3.1-2.5-6.6-2.2-9.9.3-3.4,1.7-6.7,4-9.4,2.3-2.7,5.4-4.5,8.7-5.3,3.3-.8,6.9-.5,10.1.8,3.3,1.4,6,3.7,7.7,6.6,1.7,2.7,2.5,5.9,2.4,9.2l14.9,4.7c.8.3,1.6.7,2.2,1.2.6.5,1.2,1.1,1.6,1.9l20.9,36.3c.9,1.6,1.1,3.5.7,5.1-.4,1.7-1.5,3.2-3.1,4.1l-32.5,18.7c-1.6.9-3.4,1.1-5,.6-1.7-.4-3.2-1.5-4.1-3.1-6.7-12.2-14.4-24.2-21-36.4-.4-.7-.7-1.5-.8-2.2-.1-.8-.1-1.6,0-2.5h0q0,0,0,0ZM23.8,33.7l2.2-10.3.2-.6c.5-1.7,1.6-3,3.1-3.8,1.4-.8,3.1-1.1,4.8-.8l.6.2,8.6,2.7c0-2.4-.8-4.6-2-6.6-1.4-2.4-3.6-4.3-6.3-5.4-2.7-1.1-5.6-1.3-8.3-.7-2.7.6-5.2,2.1-7.1,4.3-1.9,2.2-3,4.9-3.3,7.6-.3,2.8.3,5.6,1.8,8.1,1.4,2.3,3.4,4.1,5.7,5.3ZM32.5,37.9c-2.2.4-4.4.3-6.5-.2l-2.9,13.5c-.1.5-.1.9,0,1.4,0,.4.2.8.4,1.2,7.2,11.6,14.2,24.5,21.1,36.5.5.8,1.3,1.4,2.2,1.6.9.2,1.9.2,2.7-.3l32.4-18.7c.9-.5,1.5-1.3,1.7-2.3.2-.9.1-1.9-.4-2.8l-21-36.3c-.2-.4-.5-.8-.9-1-.3-.3-.7-.5-1.2-.6l-26.5-8.4h-.3c-.9-.3-1.9-.1-2.6.3-.8.4-1.4,1.2-1.7,2.1v.4c0,0-2.4,10.7-2.4,10.7,1.5.4,3.1.4,4.7.2-.1-.9,0-1.7.2-2.6.4-1.6,1.5-3.1,3.1-4h0c1.6-.9,3.4-1.1,5-.7,1.6.4,3.1,1.5,4,3.1h0c.9,1.7,1,3.4.6,5.1-.4,1.6-1.5,3.1-3.1,4h-.1c-1.6.9-3.3,1.1-5,.7-1.5-.4-2.8-1.3-3.8-2.7h0ZM39,30.6c-.9-.2-1.9-.1-2.7.4-.9.5-1.4,1.3-1.7,2.2-.2.9-.1,1.8.3,2.6v.2c.6.8,1.4,1.4,2.2,1.6.9.2,1.8.1,2.6-.3h.2c.8-.6,1.4-1.4,1.6-2.2.2-.9.1-1.8-.3-2.7h0c-.5-.9-1.3-1.5-2.2-1.7h0ZM56.3,52.5c.6.6.5,1.6-.1,2.2s-1.6.5-2.2-.1c-.6-.7-1.4-1.1-2.3-1.2-.9-.1-1.7,0-2.5.6-.8.5-1.3,1.3-1.5,2.1-.2.8-.2,1.7.3,2.6.4.8,1.1,1.4,2,1.7,1,.3,2.2.3,3.6,0,2-.5,3.8-.5,5.4,0,1.7.6,3,1.7,3.8,3.3.7,1.5.9,3.2.5,4.7-.3,1.2-.9,2.3-1.9,3.1l1.1,1.9c.4.7.2,1.7-.6,2.1-.7.4-1.7.2-2.1-.6l-1.1-1.8c-.9.3-1.9.4-2.9.2-1.6-.2-3.1-1-4.2-2.2-.6-.6-.5-1.6.1-2.2.6-.6,1.6-.5,2.2.1.6.7,1.4,1.1,2.3,1.2.8.1,1.7,0,2.5-.6.8-.5,1.3-1.3,1.5-2.1.2-.8.2-1.7-.3-2.6-.4-.8-1.1-1.4-2-1.7-1-.3-2.2-.3-3.6,0-2,.5-3.8.5-5.4,0-1.7-.6-3-1.7-3.8-3.3-.7-1.5-.9-3.2-.5-4.7.3-1.2.9-2.3,1.9-3.1l-1.1-1.9c-.4-.7-.2-1.7.6-2.1.7-.4,1.7-.2,2.1.6l1.1,1.8c.9-.3,1.9-.4,2.9-.2,1.6.2,3.1,1,4.2,2.2h0Z"/>
</svg>