<svg width="18" height="18" viewBox="0 0 18 18" fill="none" xmlns="http://www.w3.org/2000/svg">
<path fill-rule="evenodd" clip-rule="evenodd" d="M16.828 9.1503C16.8356 9.13846 16.8409 9.12566 16.8473 9.11334C16.8551 9.09869 16.8634 9.08469 16.8697 9.06923C16.8759 9.05345 16.8795 9.03704 16.884 9.02061C16.8875 9.00767 16.8924 8.99521 16.8949 8.98162C16.9063 8.92098 16.9053 8.85868 16.8925 8.79837C16.8895 8.78536 16.8846 8.77336 16.8806 8.76069C16.8757 8.74423 16.8715 8.72744 16.8647 8.71166C16.858 8.69639 16.8493 8.68296 16.8413 8.66869C16.8343 8.65639 16.8289 8.64358 16.8208 8.63179C16.8031 8.60642 16.7834 8.58273 16.7615 8.56139L12.238 4.16215C12.053 3.98227 11.7571 3.98622 11.5771 4.17135C11.3972 4.35631 11.4013 4.65241 11.5863 4.83229L15.3009 8.44488L1.55792 8.63621C1.29982 8.63981 1.09354 8.85191 1.09714 9.11001C1.09894 9.23922 1.15277 9.35515 1.23855 9.43857C1.32433 9.52199 1.44171 9.57258 1.57093 9.57079L15.3139 9.37945L11.7013 13.0941C11.5214 13.279 11.5255 13.5751 11.7105 13.755C11.8954 13.9349 12.1915 13.9308 12.3714 13.7458L16.7707 9.22233C16.792 9.20038 16.811 9.17615 16.828 9.1503Z" fill="#0816FD"/>
</svg>
