<?xml version="1.0" encoding="UTF-8"?>
<svg id="Layer_1" data-name="Layer 1" xmlns="http://www.w3.org/2000/svg" version="1.1" viewBox="0 0 143 100">
  <defs>
    <style>
      .cls-1, .cls-2 {
        fill: #000;
        stroke-width: 0px;
      }

      .cls-2 {
        fill-rule: evenodd;
      }
    </style>
  </defs>
  <path class="cls-1" d="M14.9,67.2c7.3-7.4,17.3-11.5,27.7-11.6,10.4,0,20.4,4.1,27.8,11.4.4.4.8.8,1.2,1.2.3-.3.5-.6.8-.9,7.3-7.4,17.3-11.6,27.7-11.6,10.4,0,20.4,4.1,27.8,11.4,7.4,7.3,11.6,17.3,11.6,27.7h-5c0-9.1-3.7-17.8-10.1-24.2-6.4-6.4-15.2-10-24.2-10-9.1,0-17.8,3.7-24.2,10.1-.4.4-.8.8-1.2,1.3,4.6,6.6,7.2,14.4,7.2,22.6h-5c0-9.1-3.7-17.8-10.1-24.2-6.4-6.4-15.2-10-24.2-10-9.1,0-17.8,3.7-24.2,10.1-6.4,6.4-10,15.2-10,24.3H3.4c0-8.3,2.6-16.3,7.4-23,1.8-2.4,3.8-4.5,4-4.8Z"/>
  <path class="cls-2" d="M43.9,5.2c12.1.6,21.8,10.6,21.9,22.9v1.2c-.6,12.1-10.6,21.8-22.9,21.9h-1.2c-11.8-.6-21.2-10-21.8-21.7v-1.2c0-12.7,10.2-23,22.9-23h1.2ZM42.7,10.2c-9.9,0-17.9,8.1-17.9,18s8.1,17.9,18,17.9c9.9,0,17.9-8.1,17.9-18,0-9.9-8.1-17.9-18-17.9Z"/>
  <path class="cls-2" d="M101.4,5c12.1.6,21.8,10.6,21.9,22.9v1.2c-.6,12.1-10.6,21.8-22.9,21.9h-1.2c-11.8-.6-21.2-10-21.8-21.7v-1.2c0-12.7,10.2-23,22.9-23h1.2ZM100.2,10c-9.9,0-17.9,8.1-17.9,18s8.1,17.9,18,17.9c9.9,0,17.9-8.1,17.9-18,0-9.9-8.1-17.9-18-17.9Z"/>
</svg>