<svg width="32" height="26" viewBox="0 0 32 26" fill="none" xmlns="http://www.w3.org/2000/svg">
<path d="M15.1777 15.499C17.8463 15.4993 19.9812 17.645 19.9814 20.3242V22.5068C19.9813 23.9395 18.7764 25.1504 17.3486 25.1504H3.49121C2.06341 25.1504 0.859566 23.9395 0.859375 22.5068C0.859375 20.2445 0.642899 18.6097 2.24707 16.998C3.07082 16.1705 4.19266 15.6437 5.5127 15.6064V15.499H15.1777ZM5.66309 16.1113C3.36815 16.1113 1.46998 18.017 1.46973 20.3242V22.5068C1.46992 23.6666 2.43256 24.5381 3.49121 24.5381H17.3486C18.506 24.5381 19.3709 23.6712 19.3711 22.5068C19.3711 20.6065 19.6707 18.9189 18.1699 17.3105V17.3096C17.3733 16.5111 16.3793 16.1114 15.1777 16.1113H5.66309ZM26.3467 13.7334C29.0154 13.7336 31.1504 15.8791 31.1504 18.5586V20.7402C31.1504 22.1731 29.9455 23.3838 28.5176 23.3838H21.4395V22.876H28.5176C29.6751 22.876 30.54 22.0083 30.54 20.8438C30.5401 18.945 30.8396 17.2585 29.3428 15.6514L29.1904 15.5059C28.4198 14.8018 27.4749 14.4483 26.3467 14.4482H16.6816V13.7334H26.3467ZM10.4199 2.30469C15.3079 2.30469 17.7576 8.17764 14.248 11.5986L14.249 11.5996C10.8456 15.0182 4.89258 12.5625 4.89258 7.75293C4.89275 4.76188 7.33747 2.30483 10.3164 2.30469H10.4199ZM13.832 4.32812C10.7171 1.29972 5.50318 3.424 5.50293 7.75293C5.50293 12.0224 10.6576 14.2321 13.6855 11.3242L13.8301 11.1797C15.6467 9.35442 15.7315 6.43073 14.0859 4.50195V4.57617L13.832 4.32812ZM22.623 0.849609C27.5116 0.849609 29.9625 6.72567 26.4512 10.1465L26.4502 10.1455C23.0466 13.5623 17.0958 11.1077 17.0957 6.29883C17.0957 3.30765 19.5405 0.849775 22.5195 0.849609H22.623ZM26.1387 2.87402C23.0237 -0.154451 17.8096 1.96968 17.8096 6.29883C17.8097 10.6359 23.1292 12.8473 26.1348 9.72754L26.1367 9.72559C27.9535 7.90042 28.038 4.9767 26.3926 3.04785V3.12109L26.1387 2.87402Z" fill="white" stroke="white" stroke-width="0.3"/>
</svg>
