<svg width="13" height="14" viewBox="0 0 13 14" fill="none" xmlns="http://www.w3.org/2000/svg">
<path d="M10.2111 7.91228L9.0231 7.04509C8.87394 6.93582 8.6901 6.89073 8.50625 6.92021C8.32241 6.94796 8.16111 7.04682 8.05358 7.19598L7.68589 7.69895C7.66681 7.72497 7.67375 7.70069 7.66508 7.73364C7.66335 7.73711 7.64253 7.76486 7.57663 7.77526C7.46563 7.79261 7.13263 7.77179 6.41286 7.19598L6.34348 7.14568C5.58556 6.64098 5.46415 6.33053 5.44681 6.21953C5.43814 6.16229 5.45201 6.13454 5.45028 6.13281C5.47456 6.1172 5.46762 6.1172 5.4867 6.09292L5.85439 5.58995C5.96365 5.44079 6.00875 5.25694 5.97926 5.0731C5.94978 4.88926 5.85265 4.72796 5.7035 4.61869L4.49463 3.73589C4.18591 3.51042 3.75059 3.57806 3.52512 3.88678L3.15396 4.39669C2.82616 4.8459 2.73771 5.45987 2.92329 6.00099C3.20946 6.83523 3.93963 7.7215 5.09473 8.63725C5.11034 8.65633 5.12768 8.67194 5.1485 8.68755C5.17798 8.70836 5.20746 8.72917 5.23695 8.74825C5.2647 8.7708 5.29418 8.79161 5.32193 8.81416C5.34101 8.82977 5.36356 8.84191 5.38611 8.85058C6.61058 9.67094 7.67722 10.0959 8.56002 10.1149C8.57216 10.1149 8.58257 10.1149 8.59471 10.1149C9.14277 10.1149 9.66482 9.84611 9.99609 9.38997L10.3672 8.88006C10.4765 8.73091 10.5216 8.54706 10.4921 8.36322C10.4626 8.17937 10.3603 8.02154 10.2111 7.91228ZM9.94232 8.57481L9.57116 9.08472C9.33182 9.41252 8.95546 9.60157 8.56522 9.59463C8.00502 9.58249 7.02856 9.35181 5.53873 8.32853C4.11134 7.222 3.59276 6.36174 3.41065 5.83276C3.27883 5.4512 3.33954 5.0176 3.57021 4.70368L3.9431 4.19377C3.97085 4.15561 4.01074 4.13133 4.05584 4.12439C4.10093 4.11746 4.14776 4.12786 4.18591 4.15561L5.39478 5.03841C5.43293 5.06616 5.45722 5.10605 5.46415 5.15115C5.47109 5.19624 5.46068 5.24307 5.43293 5.28123L5.07739 5.76859C4.99414 5.85877 4.91089 6.02354 4.92476 6.23167C4.95251 6.64965 5.32193 7.08845 6.0469 7.57061L6.09894 7.60703C6.78575 8.15683 7.3182 8.37536 7.72405 8.27303C7.92697 8.22273 8.05878 8.09439 8.11949 7.98686L8.47504 7.4995C8.53054 7.42145 8.6398 7.40584 8.71785 7.46134L9.9059 8.32853C9.94405 8.35628 9.96834 8.39617 9.97527 8.44127C9.98048 8.49156 9.97007 8.53839 9.94232 8.57481Z" fill="#0816FD"/>
<path d="M6.68693 0.809998C3.36213 0.809998 0.656494 3.51563 0.656494 6.84044C0.656494 8.2661 1.15946 9.63972 2.07695 10.7254L1.00684 12.8119C0.960011 12.9038 0.972151 13.0166 1.03806 13.0963C1.08835 13.157 1.16293 13.19 1.23751 13.19C1.26179 13.19 1.28781 13.1865 1.31209 13.1796L4.18249 12.3263C4.97163 12.687 5.81281 12.8691 6.68693 12.8691C10.0117 12.8691 12.7174 10.1635 12.7174 6.8387C12.7174 3.5139 10.0117 0.809998 6.68693 0.809998ZM6.68693 12.3488C5.8579 12.3488 5.06008 12.1684 4.3143 11.8129C4.25533 11.7852 4.18943 11.7799 4.12872 11.799L1.74742 12.5067L2.61981 10.8052C2.66837 10.7098 2.6545 10.5936 2.58166 10.5121C1.67631 9.50097 1.17681 8.19499 1.17681 6.8387C1.17681 3.80007 3.6483 1.32858 6.68693 1.32858C9.72557 1.32858 12.1971 3.80007 12.1971 6.8387C12.1971 9.87733 9.72557 12.3488 6.68693 12.3488Z" fill="#0816FD"/>
</svg>
