<svg width="15" height="11" viewBox="0 0 15 11" fill="none" xmlns="http://www.w3.org/2000/svg">
<path d="M11.8097 0.303398C8.89105 -0.101133 5.88938 -0.101133 2.96846 0.303398C1.76388 0.470451 0.825945 1.38662 0.636471 2.58514C0.482901 3.54626 0.406494 4.52609 0.406494 5.49993C0.406494 6.47378 0.485153 7.46332 0.638715 8.43044C0.824497 9.60058 1.78338 10.5302 2.96706 10.6951C4.42635 10.8981 5.91483 11 7.38766 11C8.86044 11 10.3489 10.8981 11.8083 10.6951C13.0106 10.5281 13.9462 9.61937 14.1366 8.43044C14.2902 7.46407 14.3688 6.47817 14.3688 5.49993C14.3688 4.52157 14.2902 3.53654 14.1366 2.56941C13.9508 1.39928 12.9919 0.469667 11.8083 0.30474L11.8097 0.303398ZM13.3798 8.30771C13.2435 9.15946 12.5708 9.81345 11.704 9.93406C8.85446 10.3288 5.92375 10.3288 3.07416 9.93406C2.22092 9.81495 1.53246 9.14747 1.39837 8.30771C1.2508 7.3818 1.17588 6.43566 1.17588 5.49859C1.17588 4.56069 1.25079 3.62504 1.39611 2.70442C1.53245 1.84368 2.20742 1.1837 3.07639 1.0631C4.50122 0.865337 5.95301 0.765691 7.39133 0.765691C8.82964 0.765691 10.2814 0.865324 11.7063 1.0631C12.5595 1.18221 13.248 1.84968 13.3821 2.68944C13.5296 3.61535 13.6046 4.5615 13.6046 5.49857C13.6046 6.43646 13.5296 7.38186 13.3821 8.30769L13.3798 8.30771Z" fill="white"/>
<path d="M9.88601 5.16704L5.88941 2.8598C5.7703 2.79088 5.62497 2.79088 5.50586 2.8598C5.38675 2.92872 5.31409 3.05531 5.31409 3.19166V7.80558C5.31409 7.94192 5.38675 8.07002 5.50586 8.13745C5.56504 8.17191 5.63022 8.18914 5.69764 8.18914C5.76506 8.18914 5.83023 8.17191 5.88941 8.13745L9.88601 5.8302C10.0051 5.76128 10.0778 5.63469 10.0778 5.49833C10.0778 5.36199 10.0051 5.23389 9.88601 5.16647V5.16704ZM6.08119 7.14252V3.8553L8.92713 5.49887L6.08119 7.14252Z" fill="white"/>
</svg>
